<?xml version="1.0" encoding="UTF-8"?>
<svg width="25px" height="17px" viewBox="0 0 25 17" version="1.1" xmlns="http://www.w3.org/2000/svg" xmlns:xlink="http://www.w3.org/1999/xlink">
    <title>F6A1D046-3AF2-4A24-81C7-F62B99E6373A</title>
    <g id="Page-1" stroke="none" stroke-width="1" fill="none" fill-rule="evenodd">
        <g id="DT-Footer-v1" transform="translate(-1360.000000, -845.000000)">
            <g id="Payments" transform="translate(1128.000000, 845.500000)">
                <g id="Affirm" transform="translate(232.000000, 0.000000)">
                    <rect id="Rectangle" fill="#FFFFFF" x="0" y="0" width="25" height="16"></rect>
                    <path d="M13.041521,4.35416667 C12.6176396,4.35513218 12.2747076,4.69936763 12.2753496,5.12324959 C12.2759935,5.54713156 12.6199683,5.89032505 13.0438507,5.89000434 C13.467733,5.88968318 13.8111888,5.5459692 13.8111888,5.12208675 C13.8109571,4.91818994 13.7297371,4.72273627 13.5853964,4.57872338 C13.4410556,4.4347105 13.2454178,4.3539352 13.041521,4.35416667 Z" id="Path" fill="#2BC2DF" fill-rule="nonzero"></path>
                    <rect id="Rectangle" fill="#2BC2DF" fill-rule="nonzero" x="12.381993" y="6.39437696" width="1.31075175" height="5.2145979"></rect>
                    <path d="M17.6341783,6.26019863 C16.9785839,6.26019863 16.2246503,6.73222661 15.9763986,7.32400982 L15.9763986,6.39437696 L14.7329545,6.39437696 L14.7329545,11.6094119 L16.0441434,11.6094119 L16.0441434,9.18764619 C16.0441434,8.1627336 16.4375,7.59061821 17.2945804,7.57444689 L18.0262238,6.29035598 C17.8964084,6.27114397 17.7654047,6.26106676 17.6341783,6.26019863 Z" id="Path" fill="#2BC2DF" fill-rule="nonzero"></path>
                    <path d="M22.9020979,6.26369514 C22.3395979,6.26369514 21.8352273,6.4752336 21.4816434,6.85897486 L21.4632867,6.87864269 L21.4453671,6.85897486 C21.0957168,6.4752336 20.5939685,6.26369514 20.0310315,6.26369514 C18.8256119,6.26369514 17.9506119,7.1426287 17.9506119,8.35329304 L17.9506119,11.6094119 L19.2408217,11.6094119 L19.2408217,8.32532101 C19.2408217,7.81701682 19.5511364,7.48878255 20.0310315,7.48878255 C20.5109266,7.48878255 20.8216783,7.81701682 20.8216783,8.32532101 L20.8216783,11.6094119 L22.1153846,11.6094119 L22.1153846,8.32532101 C22.1153846,7.81701682 22.4256993,7.48878255 22.9060315,7.48878255 C23.3863636,7.48878255 23.6966783,7.81701682 23.6966783,8.32532101 L23.6966783,11.6094119 L24.986451,11.6094119 L24.986451,8.35329304 C24.9842657,7.1426287 24.1092657,6.26369514 22.9020979,6.26369514 Z" id="Path" fill="#2BC2DF" fill-rule="nonzero"></path>
                    <path d="M10.7954545,5.91404479 C10.7954545,5.74184199 10.8186189,5.53598535 10.9659091,5.42278605 C11.1271853,5.29734898 11.3631993,5.32051332 11.5541958,5.3301287 L11.8085664,4.380828 L11.6726399,4.373835 C11.1254371,4.34455178 10.5498252,4.30390493 10.0699301,4.62121262 C9.66302448,4.89000633 9.48208042,5.35285598 9.48208042,5.82794339 L9.48208042,6.39612521 L7.91870629,6.39612521 L7.91870629,5.91535598 C7.91870629,5.7440273 7.94143357,5.54035598 8.08566434,5.42584549 C8.24694056,5.29778605 8.48601399,5.32182451 8.67701049,5.33143989 L8.93138112,4.38213919 L8.79545455,4.37514619 C8.24388112,4.34542591 7.66258741,4.30521612 7.18225524,4.63126507 C6.78365385,4.90136996 6.60708042,5.36028605 6.60708042,5.82969164 L6.60708042,6.39787346 L6.01617133,6.39787346 L6.01617133,7.34236647 L6.60751748,7.34236647 L6.60751748,11.6094119 L7.91870629,11.6094119 L7.91870629,7.34236647 L9.48164336,7.34236647 L9.48164336,11.6094119 L10.7928322,11.6094119 L10.7928322,7.34236647 L11.7006119,7.34236647 L11.7006119,6.39437696 L10.7954545,6.39437696 L10.7954545,5.91360772 L10.7954545,5.91404479 Z" id="Path" fill="#2BC2DF" fill-rule="nonzero"></path>
                    <path d="M5.35096154,11.6094119 L5.35096154,7.00451682 C5.34646935,6.62366836 5.05971131,6.30546427 4.68138112,6.26150982 C4.43094406,6.24533849 4.16477273,6.33712171 4.00786713,6.54035598 L6.52811138e-14,11.6094119 L0.987762238,11.6094119 C1.38111888,11.6094119 1.69493007,11.4044294 1.93225524,11.0980483 L4.1520979,8.29079304 L4.1520979,11.6094119 L5.35183566,11.6094119 L5.35096154,11.6094119 Z" id="Path" fill="#2BC2DF" fill-rule="nonzero"></path>
                </g>
            </g>
        </g>
    </g>
</svg>