<?xml version="1.0" encoding="UTF-8"?>
<svg width="25px" height="17px" viewBox="0 0 25 17" version="1.1" xmlns="http://www.w3.org/2000/svg" xmlns:xlink="http://www.w3.org/1999/xlink">
    <title>A84BCEF7-5238-4FE9-9EEE-3D69EE7572E3</title>
    <g id="Page-1" stroke="none" stroke-width="1" fill="none" fill-rule="evenodd">
        <g id="DT-Footer-v1" transform="translate(-1215.000000, -845.000000)" fill-rule="nonzero">
            <g id="Payments" transform="translate(1128.000000, 845.500000)">
                <g id="amex" transform="translate(87.000000, 0.000000)">
                    <rect id="Rectangle-1" fill="#2557D6" x="0" y="0" width="25" height="16" rx="1"></rect>
                    <path d="M-9.99999997e-08,7.51371822 L1.20089497,7.51371822 L1.47165263,6.85095745 L2.07781987,6.85095745 L2.34786807,7.51371822 L4.71054567,7.51371822 L4.71054567,7.00701792 L4.92144067,7.51587805 L6.14796467,7.51587805 L6.35885967,6.99945783 L6.35885967,7.51371822 L12.230567,7.51371822 L12.227817,6.42579737 L12.3414233,6.42579737 C12.4209747,6.42858972 12.44421,6.43605741 12.44421,6.56934726 L12.44421,7.51371822 L15.4810773,7.51371822 L15.4810773,7.26045792 C15.7260273,7.39365775 16.1070213,7.51371822 16.608362,7.51371822 L17.8859693,7.51371822 L18.1593877,6.85095745 L18.7655547,6.85095745 L19.0329427,7.51371822 L21.494948,7.51371822 L21.494948,6.88416781 L21.8677833,7.51371822 L23.840687,7.51371822 L23.840687,3.35211516 L21.888181,3.35211516 L21.888181,3.84360561 L21.6147627,3.35211516 L19.6112623,3.35211516 L19.6112623,3.84360561 L19.360193,3.35211516 L16.6539463,3.35211516 C16.2009393,3.35211516 15.8027403,3.41628535 15.4810773,3.59511541 L15.4810773,3.35211516 L13.613532,3.35211516 L13.613532,3.59511541 C13.4088453,3.41079541 13.1299287,3.35211516 12.8197943,3.35211516 L5.996932,3.35211516 L5.53913567,4.42698599 L5.06901233,3.35211516 L2.919979,3.35211516 L2.919979,3.84360561 L2.68389747,3.35211516 L0.851117267,3.35211516 L-9.99999997e-08,5.33076688 L-9.99999997e-08,7.51371822 L-9.99999997e-08,7.51371822 L-9.99999997e-08,7.51371822 Z M7.57998567,6.91343898 L6.85949067,6.91343898 L6.85683067,4.57649732 L5.83774267,6.91343898 L5.22066667,6.91343898 L4.198918,4.57442718 L4.198918,6.91343898 L2.7694809,6.91343898 L2.4994327,6.24788858 L1.03611747,6.24788858 L0.76332,6.91343898 L1.56666667e-06,6.91343898 L1.25854137,3.9295769 L2.30272767,3.9295769 L3.49803433,6.7546789 L3.49803433,3.9295769 L4.64509633,3.9295769 L5.56485633,5.95376849 L6.40976567,3.9295769 L7.57988567,3.9295769 L7.57988567,6.91343898 L7.57998567,6.91343898 L7.57998567,6.91343898 Z M2.25924047,5.62863253 L1.77820883,4.43910183 L1.29992647,5.62863253 L2.25924047,5.62863253 L2.25924047,5.62863253 Z M10.4473157,6.91343898 L8.099537,6.91343898 L8.099537,3.9295769 L10.4473157,3.9295769 L10.4473157,4.55093707 L8.802372,4.55093707 L8.802372,5.08877792 L10.4078503,5.08877792 L10.4078503,5.70041817 L8.802372,5.70041817 L8.802372,6.29630879 L10.4473157,6.29630879 L10.4473157,6.91343898 L10.4473157,6.91343898 Z M13.755843,4.7331876 C13.755843,5.20892807 13.442959,5.45471796 13.260621,5.52851805 C13.414402,5.58791813 13.5457457,5.69285809 13.6082693,5.77979822 C13.7075083,5.92820858 13.724625,6.06077826 13.724625,6.32726862 L13.724625,6.91343898 L13.0157593,6.91343898 L13.0130993,6.53714887 C13.0130993,6.3575983 13.0300383,6.0993882 12.9021533,5.9558383 C12.7994553,5.850898 12.6429247,5.82812807 12.3899047,5.82812807 L11.6354543,5.82812807 L11.6354543,6.91343898 L10.9327083,6.91343898 L10.9327083,3.9295769 L12.549184,3.9295769 C12.9083613,3.9295769 13.1729997,3.93920679 13.400213,4.07249699 C13.622548,4.20578718 13.755843,4.40036722 13.755843,4.7331876 L13.755843,4.7331876 Z M12.8674257,5.17626565 C12.7708467,5.23575575 12.6566197,5.23773554 12.5197777,5.23773554 L11.6659993,5.23773554 L11.6659993,4.57497512 L12.5313953,4.57497512 C12.6538703,4.57497512 12.7816663,4.58055541 12.8646763,4.62879524 C12.9558453,4.67226531 13.0122497,4.76478539 13.0122497,4.89258531 C13.0122497,5.0229955 12.9585947,5.1279358 12.8674257,5.17626565 L12.8674257,5.17626565 Z M14.8829693,6.91343898 L14.1658563,6.91343898 L14.1658563,3.9295769 L14.8829693,3.9295769 L14.8829693,6.91343898 L14.8829693,6.91343898 Z M23.2076187,6.91343898 L22.2116773,6.91343898 L20.8795283,4.67387754 L20.8795283,6.91343898 L19.448229,6.91343898 L19.174722,6.24788858 L17.714777,6.24788858 L17.449429,6.91343898 L16.6270457,6.91343898 C16.285428,6.91343898 15.8529073,6.8367589 15.6079573,6.58340858 C15.3609677,6.3300586 15.232462,5.98688849 15.232462,5.44427788 C15.232462,5.00174777 15.3092637,4.59719745 15.6113277,4.27751711 C15.8385403,4.03937699 16.194348,3.9295769 16.6786607,3.9295769 L17.359058,3.9295769 L17.359058,4.56893724 L16.6929393,4.56893724 C16.43646,4.56893724 16.2916363,4.60763754 16.1521333,4.74569749 C16.032319,4.87133758 15.9501073,5.1088479 15.9501073,5.42159796 C15.9501073,5.74127796 16.0127193,5.97176832 16.1433537,6.12233817 C16.25155,6.24041851 16.4481667,6.27623847 16.633165,6.27623847 L16.9487977,6.27623847 L17.939329,3.92966692 L18.992384,3.92966692 L20.182281,6.75197894 L20.182281,3.92966692 L21.2523633,3.92966692 L22.4877567,6.00776832 L22.4877567,3.92966692 L23.2076187,3.92966692 L23.2076187,6.91343898 L23.2076187,6.91343898 Z M18.9356837,5.62863253 L18.449331,4.43910183 L17.9656387,5.62863253 L18.9356837,5.62863253 L18.9356837,5.62863253 Z" id="Path" fill="#FFFFFF"></path>
                    <path d="M24.998548,11.6778653 C24.8278283,11.9312156 24.495168,12.0596457 24.0448213,12.0596457 L22.6875743,12.0596457 L22.6875743,11.4196552 L24.039323,11.4196552 C24.173416,11.4196552 24.2672453,11.4017451 24.3237383,11.3457651 C24.372693,11.2995951 24.4068367,11.2325449 24.4068367,11.151095 C24.4068367,11.0641552 24.372693,10.9951249 24.320989,10.953725 C24.2699947,10.9081848 24.1957647,10.8874847 24.0733783,10.8874847 C23.4134673,10.8647151 22.5901973,10.9081848 22.5901973,9.9637245 C22.5901973,9.53082395 22.8610437,9.07515346 23.5985547,9.07515346 L24.998548,9.07515346 L24.998548,8.48133333 L23.697794,8.48133333 C23.3052707,8.48133333 23.020146,8.57673342 22.8182087,8.72505308 L22.8182087,8.48133333 L20.894348,8.48133333 C20.586697,8.48133333 20.2255687,8.55873325 20.0547597,8.72505308 L20.0547597,8.48133333 L16.6192503,8.48133333 L16.6192503,8.72505308 C16.345832,8.52489308 15.8844887,8.48133333 15.6715543,8.48133333 L13.4054553,8.48133333 L13.4054553,8.72505308 C13.1891507,8.51247321 12.708119,8.48133333 12.414924,8.48133333 L9.87877667,8.48133333 L9.29841733,9.11871355 L8.754862,8.48133333 L4.966383,8.48133333 L4.966383,12.6458161 L8.68355867,12.6458161 L9.28156667,11.9983555 L9.844899,12.6458161 L12.1361847,12.6478848 L12.1361847,11.6682341 L12.3614463,11.6682341 C12.6654613,11.6730038 13.024018,11.6605843 13.3403597,11.5218042 L13.3403597,12.6457247 L15.230254,12.6457247 L15.230254,11.5603241 L15.3214227,11.5603241 C15.4377787,11.5603241 15.449219,11.5651842 15.449219,11.6831742 L15.449219,12.6456346 L21.1903813,12.6456346 C21.5548797,12.6456346 21.9358737,12.5509547 22.146857,12.3791446 L22.146857,12.6456346 L23.9679307,12.6456346 C24.3468853,12.6456346 24.716971,12.5917245 24.998548,12.4536645 L24.998548,11.6778639 L24.998548,11.6778653 Z M13.6151003,10.0760139 C13.6151003,10.9050945 13.005563,11.0762748 12.3912367,11.0762748 L11.5143117,11.0762748 L11.5143117,12.0773452 L10.148285,12.0773452 L9.282889,11.0893245 L8.38352667,12.0773452 L5.59968,12.0773452 L5.59968,9.09276331 L8.426362,9.09276331 L9.291048,10.0710638 L10.1850007,9.09276331 L12.430702,9.09276331 C12.9884467,9.09276331 13.6151003,9.24945325 13.6151003,10.0760139 L13.6151003,10.0760139 Z M8.02759367,11.4495643 L6.29964,11.4495643 L6.29964,10.8557439 L7.842595,10.8557439 L7.842595,10.2468036 L6.29964,10.2468036 L6.29964,9.70419295 L8.061649,9.70419295 L8.83037733,10.573954 L8.02759367,11.4495643 L8.02759367,11.4495643 Z M10.8118167,11.7913097 L9.73277667,10.575589 L10.8118167,9.39847813 L10.8118167,11.7913097 L10.8118167,11.7913097 Z M12.4075733,10.4642436 L11.4993423,10.4642436 L11.4993423,9.70419295 L12.4157323,9.70419295 C12.6694627,9.70419295 12.8455923,9.80913325 12.8455923,10.0701337 C12.8455923,10.3282534 12.6776217,10.4642436 12.4075733,10.4642436 L12.4075733,10.4642436 Z M17.1656843,9.09276093 L19.5113347,9.09276093 L19.5113347,9.70998352 L17.8655927,9.70998352 L17.8655927,10.2525941 L19.47116,10.2525941 L19.47116,10.8615344 L17.8655927,10.8615344 L17.8655927,11.4553549 L19.5113347,11.4580521 L19.5113347,12.0773428 L17.1656843,12.0773428 L17.1656843,9.09276093 L17.1656843,9.09276093 Z M16.263908,10.6903541 C16.4203497,10.7489444 16.5482343,10.8539744 16.6081863,10.9409145 C16.7074253,11.0866245 16.7217927,11.2226144 16.7246303,11.4856849 L16.7246303,12.0773452 L16.0190467,12.0773452 L16.0190467,11.7039348 C16.0190467,11.5243849 16.0360743,11.2585247 15.90544,11.1197445 C15.802742,11.0128245 15.6462117,10.9872645 15.389821,10.9872645 L14.638741,10.9872645 L14.638741,12.0773452 L13.9325363,12.0773452 L13.9325363,9.09276331 L15.555131,9.09276331 C15.9109387,9.09276331 16.1700787,9.10869333 16.4007503,9.23361325 C16.6225533,9.3696034 16.762056,9.55590352 16.762056,9.89637367 C16.761956,10.3727439 16.4489063,10.6158342 16.263908,10.6903541 L16.263908,10.6903541 Z M15.866633,10.3130436 C15.7726263,10.3696537 15.656359,10.3745138 15.5196057,10.3745138 L14.6658277,10.3745138 L14.6658277,9.70419295 L15.5312233,9.70419295 C15.656359,9.70419295 15.7815833,9.70689019 15.866633,9.7581031 C15.9577133,9.80643295 16.0121663,9.89886335 16.0121663,10.0265732 C16.0121663,10.1542835 15.9577133,10.2571536 15.866633,10.3130436 L15.866633,10.3130436 Z M22.2111797,10.5031541 C22.3480223,10.6468844 22.421365,10.8283244 22.421365,11.1354945 C22.421365,11.7775552 22.0260927,12.0772552 21.317316,12.0772552 L19.948451,12.0772552 L19.948451,11.4372651 L21.3118177,11.4372651 C21.4451123,11.4372651 21.5396513,11.4193549 21.5988933,11.3633746 C21.647227,11.3172046 21.681903,11.2501547 21.681903,11.1687049 C21.681903,11.0817644 21.644389,11.0127348 21.5961443,10.9713345 C21.5424003,10.9257943 21.4682593,10.9050945 21.345873,10.9050945 C20.6886227,10.8823246 19.86553,10.9257943 19.86553,9.98133367 C19.86553,9.54843346 20.1335383,9.09276331 20.8703397,9.09276331 L22.2792907,9.09276331 L22.2792907,9.72798369 L20.9900653,9.72798369 C20.8622697,9.72798369 20.7791707,9.73284382 20.708488,9.78189384 C20.631509,9.83022369 20.602952,9.90195363 20.602952,9.99663355 C20.602952,10.1092239 20.6683137,10.185814 20.7567333,10.218934 C20.8308747,10.2451241 20.9105143,10.2527738 21.03024,10.2527738 L21.408574,10.2631239 C21.7901,10.2725738 22.051989,10.3395339 22.2111797,10.5031541 L22.2111797,10.5031541 Z M25,9.70419295 L23.7191117,9.70419295 C23.5912267,9.70419295 23.5062657,9.70905308 23.434696,9.7581031 C23.360555,9.80643295 23.3319983,9.87816323 23.3319983,9.97284348 C23.3319983,10.0854332 23.3946103,10.1620233 23.4856903,10.1951433 C23.5598317,10.2213333 23.6394717,10.2289834 23.7565367,10.2289834 L24.1374423,10.2393335 C24.5218063,10.2489637 24.7783743,10.3160136 24.934816,10.4795438 C24.963284,10.5023137 24.9804007,10.5278736 25,10.5534335 L25,9.70419295 L25,9.70419295 Z" id="path13" fill="#FFFFFF"></path>
                </g>
            </g>
        </g>
    </g>
</svg>