<?xml version="1.0" encoding="UTF-8"?>
<svg width="25px" height="17px" viewBox="0 0 25 17" version="1.1" xmlns="http://www.w3.org/2000/svg" xmlns:xlink="http://www.w3.org/1999/xlink">
    <title>0B59E722-5FE7-481E-9B81-01DD41D623E7</title>
    <g id="Page-1" stroke="none" stroke-width="1" fill="none" fill-rule="evenodd">
        <g id="DT-Footer-v1" transform="translate(-1273.000000, -845.000000)" fill-rule="nonzero">
            <g id="Payments" transform="translate(1128.000000, 845.500000)">
                <g id="diners" transform="translate(145.000000, 0.000000)">
                    <rect id="rectangle" fill="#0079BE" x="0" y="0" width="25" height="16" rx="1"></rect>
                    <path d="M19.2755059,8.09020953 C19.2755059,4.71007236 16.4541542,2.37367874 13.3630764,2.37480257 L10.7028421,2.37480257 C7.57473874,2.37367874 5,4.71076939 5,8.09020953 C5,11.1818445 7.57473874,13.7219727 10.7028421,13.7071974 L13.3630764,13.7071974 C16.4541542,13.7219502 19.2755059,11.1811699 19.2755059,8.09020953 L19.2755059,8.09020953 Z" id="Shape-path" fill="#FFFFFF"></path>
                    <path d="M10.7192832,2.85364854 C7.86090583,2.85454793 5.5446732,5.17610159 5.544,8.04135975 C5.5446732,10.9061233 7.86088342,13.2274521 10.7192832,13.2283515 C13.5783338,13.2274521 15.8950377,10.9061233 15.8954416,8.04135975 C15.8950153,5.17610159 13.5783338,2.85454793 10.7192832,2.85364854 L10.7192832,2.85364854 Z" id="Shape-path" fill="#0079BE"></path>
                    <path d="M7.448,8.02732316 C7.45069277,6.62719582 8.32337529,5.43325396 9.55397204,4.95880256 L9.55397204,11.0951242 C8.32337529,10.6209427 7.45067033,9.42765284 7.448,8.02732316 Z M11.902,11.0966757 L11.902,4.95880256 C13.1330456,5.43210721 14.0070744,6.62672366 14.0093184,8.02752553 C14.0070744,9.42875461 13.1330456,10.6224716 11.902,11.0966757 Z" id="Path" fill="#FFFFFF"></path>
                </g>
            </g>
        </g>
    </g>
</svg>