<?xml version="1.0" encoding="UTF-8"?>
<svg width="25px" height="17px" viewBox="0 0 25 17" version="1.1" xmlns="http://www.w3.org/2000/svg" xmlns:xlink="http://www.w3.org/1999/xlink">
    <title>1822F83D-8E34-4A0D-AE0C-F906B6A4EE9A</title>
    <g id="Page-1" stroke="none" stroke-width="1" fill="none" fill-rule="evenodd">
        <g id="DT-Footer-v1" transform="translate(-1186.000000, -845.000000)" fill-rule="nonzero">
            <g id="Payments" transform="translate(1128.000000, 845.500000)">
                <g id="discover" transform="translate(58.000000, 0.000000)">
                    <path d="M1.76257013,0 C0.789312981,0 0,0.786566834 0,1.75661177 L0,14.2433881 C0,15.2136163 0.789060032,16 1.76257013,16 L23.2374298,16 C24.2106872,16 25,15.213433 25,14.2433881 L25,8.57665916 L25,1.75661177 C25,0.786383617 24.2109401,0 23.2374298,0 L1.76257013,0 L1.76257013,0 L1.76257013,0 Z" id="Path" fill="#4D4D4D"></path>
                    <path d="M10.4856519,5.17022212 C10.768875,5.17022212 11.0064192,5.22721693 11.2955103,5.36470802 L11.2955103,6.09131752 C11.0216756,5.8401881 10.7841292,5.73509238 10.4700019,5.73509238 C9.85257051,5.73509238 9.36698718,6.21459641 9.36698718,6.82254244 C9.36698718,7.46363816 9.83754263,7.91460822 10.5006135,7.91460822 C10.7990933,7.91460822 11.0322378,7.81495697 11.2955103,7.56786427 L11.2955103,8.29484774 C10.9961179,8.42707896 10.7534859,8.47929134 10.4700019,8.47929134 C9.46750673,8.47929134 8.6885266,7.75766802 8.6885266,6.82703329 C8.6885266,5.90642938 9.48824231,5.17022212 10.4856519,5.17022212 L10.4856519,5.17022212 L10.4856519,5.17022212 Z M7.37304679,5.19024447 C7.7431016,5.19024447 8.08171538,5.30906315 8.36482115,5.54135473 L8.02033269,5.96444615 C7.84883397,5.7841418 7.68664647,5.70808399 7.48942051,5.70808399 C7.20566282,5.70808367 6.9990109,5.85962028 6.9990109,6.05900711 C6.9990109,6.23001485 7.1150266,6.32052311 7.51007853,6.45764727 C8.25895096,6.71452583 8.48088205,6.94230419 8.48088205,7.44529693 C8.48088205,8.0582582 8.00089936,8.48490507 7.31676923,8.48490507 C6.81580865,8.48490507 6.45160513,8.29984671 6.14827468,7.88223553 L6.57351763,7.49800399 C6.72515673,7.77298651 6.97808173,7.92028455 7.29210481,7.92028455 C7.58579904,7.92028455 7.80323526,7.73018922 7.80323526,7.4736776 C7.80323526,7.3407125 7.73737564,7.22669381 7.60585673,7.14608287 C7.53964103,7.10791792 7.40848397,7.05101509 7.15075385,6.96575585 C6.53243526,6.75695042 6.3203,6.53375936 6.3203,6.09755497 C6.3203,5.57939417 6.77586603,5.19024447 7.37304679,5.19024447 L7.37304679,5.19024447 L7.37304679,5.19024447 Z M14.896209,5.24544671 L15.6153596,5.24544671 L16.5154872,7.37213062 L17.4271962,5.24544671 L18.1409003,5.24544671 L16.6827548,8.4928891 L16.3285006,8.4928891 L14.896209,5.24544671 L14.896209,5.24544671 L14.896209,5.24544671 Z M2.16070712,5.25031186 L3.1270658,5.25031186 C4.19474647,5.25031186 4.93902756,5.90121485 4.93902756,6.83564136 C4.93902756,7.30156998 4.71133462,7.75206515 4.32629712,8.05102307 C4.00229872,8.30337565 3.63313974,8.41654196 3.12199519,8.41654196 L2.16070712,8.41654196 L2.16070712,5.25031186 L2.16070712,5.25031186 L2.16070712,5.25031186 Z M5.24194968,5.25031186 L5.90031538,5.25031186 L5.90031538,8.41654196 L5.24194968,8.41654196 L5.24194968,5.25031186 L5.24194968,5.25031186 L5.24194968,5.25031186 Z M18.4385641,5.25031186 L20.3056141,5.25031186 L20.3056141,5.78680144 L19.0964292,5.78680144 L19.0964292,6.48958339 L20.2610426,6.48958339 L20.2610426,7.02582323 L19.0964292,7.02582323 L19.0964292,7.88048894 L20.3056141,7.88048894 L20.3056141,8.41654196 L18.4385641,8.41654196 L18.4385641,5.25031186 L18.4385641,5.25031186 L18.4385641,5.25031186 Z M20.7416865,5.25031186 L21.7178109,5.25031186 C22.4771151,5.25031186 22.9122221,5.59235194 22.9122221,6.1851299 C22.9122221,6.66989637 22.6393308,6.9880313 22.1434295,7.08270946 L23.2058795,8.41654196 L22.3962715,8.41654196 L21.4850635,7.14458571 L21.3992388,7.14458571 L21.3992388,8.41654196 L20.7416865,8.41654196 L20.7416865,5.25031186 L20.7416865,5.25031186 L20.7416865,5.25031186 Z M21.3992388,5.74900184 L21.3992388,6.70789685 L21.591609,6.70789685 C22.0120103,6.70789685 22.2348256,6.53666044 22.2348256,6.21837573 C22.2348256,5.91024383 22.0119702,5.74900184 21.6020006,5.74900184 L21.3992388,5.74900184 L21.3992388,5.74900184 L21.3992388,5.74900184 Z M2.81857221,5.78680144 L2.81857221,7.88048894 L2.99522987,7.88048894 C3.42065128,7.88048894 3.68932212,7.80403417 3.89617147,7.62886739 C4.12385833,7.43865485 4.26081731,7.13493844 4.26081731,6.8310879 C4.26081731,6.52772631 4.12385833,6.23306443 3.89617147,6.0428519 C3.67872051,5.85826619 3.42065128,5.78680144 2.99522987,5.78680144 L2.81857221,5.78680144 L2.81857221,5.78680144 L2.81857221,5.78680144 Z" id="Shape" fill="#FFFFFF"></path>
                    <path d="M13.3054763,5.14851545 C14.2971484,5.14851545 15.1010365,5.9015687 15.1010365,6.83183649 L15.1010365,6.83289677 C15.1010365,7.76316423 14.2971484,8.51727808 13.3054763,8.51727808 C12.3138042,8.51727808 11.509916,7.76316423 11.509916,6.83289677 L11.509916,6.83183649 C11.509916,5.9015687 12.3138042,5.14851545 13.3054763,5.14851545 L13.3054763,5.14851545 L13.3054763,5.14851545 Z M24.9994204,9.20913594 C24.1644884,9.7945523 17.9136188,13.9784616 7.09064125,15.9994929 L23.2368502,15.9994929 C24.2101076,15.9994929 24.9994204,15.2129258 24.9994204,14.2428809 L24.9994204,9.20913594 L24.9994204,9.20913594 L24.9994204,9.20913594 Z" id="Shape" fill="#F47216"></path>
                </g>
            </g>
        </g>
    </g>
</svg>