<?xml version="1.0" encoding="UTF-8"?>
<svg width="25px" height="17px" viewBox="0 0 25 17" version="1.1" xmlns="http://www.w3.org/2000/svg" xmlns:xlink="http://www.w3.org/1999/xlink">
    <title>0A910A01-4523-4964-B2DB-16CC4BAAE1F3</title>
    <defs>
        <linearGradient x1="0.031607858%" y1="49.9998574%" x2="99.9743153%" y2="49.9998574%" id="linearGradient-1">
            <stop stop-color="#007B40" offset="0%"></stop>
            <stop stop-color="#55B330" offset="100%"></stop>
        </linearGradient>
        <linearGradient x1="0.471693172%" y1="49.999826%" x2="99.9860086%" y2="49.999826%" id="linearGradient-2">
            <stop stop-color="#1D2970" offset="0%"></stop>
            <stop stop-color="#006DBA" offset="100%"></stop>
        </linearGradient>
        <linearGradient x1="0.113880772%" y1="50.0008964%" x2="99.9860003%" y2="50.0008964%" id="linearGradient-3">
            <stop stop-color="#6E2B2F" offset="0%"></stop>
            <stop stop-color="#E30138" offset="100%"></stop>
        </linearGradient>
    </defs>
    <g id="Page-1" stroke="none" stroke-width="1" fill="none" fill-rule="evenodd">
        <g id="DT-Footer-v1" transform="translate(-1244.000000, -845.000000)" fill-rule="nonzero">
            <g id="Payments" transform="translate(1128.000000, 845.500000)">
                <g id="jcb" transform="translate(116.000000, 0.000000)">
                    <rect id="Rectangle-1" fill="#0E4C96" x="0" y="0" width="25" height="16" rx="1"></rect>
                    <path d="M20.5747728,11.7797463 C20.5747728,13.1934059 19.4504964,14.3397358 18.062783,14.3397358 L4.42522743,14.3397358 L4.42522743,4.22063409 C4.42522743,2.80657945 5.5496617,1.66026415 6.93738943,1.66026415 L20.5747728,1.66026415 L20.5747728,11.7797463 L20.5747728,11.7797463 L20.5747728,11.7797463 Z" id="path3494" fill="#FFFFFF"></path>
                    <path d="M16.1286291,8.22232856 C16.51809,8.23093962 16.9098729,8.2048002 17.2978668,8.23591959 C17.6907748,8.31068121 17.7854638,8.91678553 17.4364113,9.11532946 C17.1983582,9.24610157 16.9153165,9.16398118 16.6571109,9.18713233 L16.1286291,9.18713233 L16.1286291,8.22232856 L16.1286291,8.22232856 Z M17.5230609,7.13037748 C17.6096164,7.44168761 17.3151301,7.72117598 17.0208639,7.67832071 L16.1286291,7.67832071 C16.1347919,7.38474534 16.1163782,7.06612223 16.1377018,6.78799704 C16.4951647,6.79824666 16.8559859,6.76707767 17.2113465,6.80430923 C17.36406,6.84336503 17.4917978,6.97130232 17.5230609,7.13037748 L17.5230609,7.13037748 Z M19.6706804,2.51370617 C19.6872624,3.10822774 19.673049,3.73413673 19.6777863,4.34072839 C19.6766379,6.80684019 19.6801981,9.27300803 19.6759632,11.7390846 C19.6603473,12.6633237 18.8565508,13.4662821 17.9559583,13.4847285 C17.0544307,13.4885249 16.1528099,13.4852697 15.2512465,13.4863523 L15.2512465,9.75807358 C16.2335667,9.75285955 17.2165347,9.76852654 18.1984507,9.75020277 C18.654024,9.72102825 19.1528676,9.41471575 19.1741093,8.90385984 C19.2277887,8.39084443 18.7530709,8.03591287 18.3023699,7.97981092 C18.1290924,7.97522011 18.1342377,7.92835146 18.3023699,7.90790563 C18.7321023,7.81324783 19.0696892,7.35985688 18.9432262,6.90582519 C18.8353507,6.42827597 18.3174613,6.24344527 17.8866789,6.24434031 C17.0082849,6.23825434 16.12971,6.24347716 15.2512465,6.24173622 C15.2569528,5.54572936 15.2394305,4.84893938 15.260757,4.1534561 C15.3303454,3.24590664 16.1542868,2.49747879 17.0423253,2.5137208 C17.9184389,2.51371106 18.7945912,2.5137403 19.6706804,2.51370617 L19.6706804,2.51370617 Z" id="path3496" fill="url(#linearGradient-1)"></path>
                    <path d="M5.32468097,4.24766023 C5.34712297,3.32489713 6.1542873,2.52837469 7.05382657,2.51490581 C7.9519831,2.51210084 8.8502068,2.51451081 9.74838903,2.51370617 C9.74592133,5.60110363 9.75333017,8.68870223 9.7446767,11.7759736 C9.7100766,12.6875177 8.91168493,13.4688292 8.0220452,13.4849186 C7.12216717,13.4882703 6.22220917,13.4853868 5.3223004,13.4863523 L5.3223004,9.63230149 C6.19638743,9.8427343 7.11303793,9.93231484 8.00474687,9.79268763 C8.53781697,9.70521845 9.12099783,9.43857413 9.30147537,8.87499166 C9.4343374,8.39290928 9.3595241,7.88557459 9.37926757,7.39079287 L9.37926757,6.24175086 L7.83604153,6.24175086 C7.82910353,7.00168645 7.85024193,7.7629706 7.82487153,8.52202487 C7.78326167,8.98857627 7.3300049,9.28499349 6.89821427,9.26919069 C6.36265823,9.27492263 5.301585,8.87377651 5.301585,8.87377651 C5.2989164,7.44984459 5.3171438,5.6667307 5.32468097,4.24766023 L5.32468097,4.24766023 Z" id="path3498" fill="url(#linearGradient-2)"></path>
                    <path d="M10.3239998,6.7053974 C10.2428596,6.72296832 10.307638,6.42342111 10.2868766,6.30977372 C10.2924078,5.59129128 10.2753348,4.87204929 10.2963239,4.1540833 C10.3657514,3.24270345 11.1960421,2.4924029 12.0876249,2.5137208 L14.713152,2.5137208 C14.7106886,5.6010988 14.7180831,8.68867737 14.7094469,11.7759298 C14.6748137,12.6874914 13.8763781,13.4687763 12.9867362,13.4849186 C12.0868202,13.4883054 11.1868236,13.4854014 10.2868766,13.486367 L10.2868766,9.26395326 C10.901547,9.77786313 11.7368579,9.85791076 12.5025984,9.85931156 C13.0798337,9.85910675 13.6537287,9.76842004 14.2142714,9.63271113 L14.2142714,8.85911837 C13.5824886,9.1800122 12.8398269,9.38380688 12.1394915,9.19942135 C11.6509684,9.07540949 11.296363,8.59436715 11.3042838,8.08058442 C11.247667,7.54628226 11.5550877,6.98214471 12.0703412,6.82329868 C12.7100308,6.61919473 13.4072596,6.77531903 14.0068781,7.04063847 C14.1353509,7.10919575 14.2656887,7.19423667 14.2142714,6.97539003 L14.2142714,6.36733276 C13.2114527,6.12419366 12.1442215,6.03469741 11.1366479,6.29923122 C10.8450398,6.38307513 10.5609397,6.51022155 10.3239998,6.7053974 L10.3239998,6.7053974 Z" id="path3500" fill="url(#linearGradient-3)"></path>
                </g>
            </g>
        </g>
    </g>
</svg>