<?xml version="1.0" encoding="UTF-8"?>
<svg width="25px" height="17px" viewBox="0 0 25 17" version="1.1" xmlns="http://www.w3.org/2000/svg" xmlns:xlink="http://www.w3.org/1999/xlink">
    <title>5FCB70D6-EE8D-42F7-B6A8-DBA52FDA1330</title>
    <g id="Page-1" stroke="none" stroke-width="1" fill="none" fill-rule="evenodd">
        <g id="DT-Footer-v1" transform="translate(-1157.000000, -845.000000)" fill-rule="nonzero">
            <g id="Payments" transform="translate(1128.000000, 845.500000)">
                <g id="mastercard" transform="translate(29.000000, 0.000000)">
                    <rect id="Rectangle-1" fill="#000000" x="0" y="0" width="25" height="16" rx="1"></rect>
                    <path d="M14.1640472,7.97929412 C14.1640472,11.3384471 11.4408942,14.0613177 8.08188241,14.0613177 C4.72287061,14.0613177 2,11.3384471 2,7.97929412 C2,4.62042351 4.72287061,1.89727056 8.08188241,1.89727056 C11.4408942,1.89727056 14.1640472,4.62042351 14.1640472,7.97929412" id="Fill-1" fill="#D9222A"></path>
                    <path d="M16.2472472,1.89727056 C14.6758119,1.89727056 13.2438589,2.49345879 12.1644236,3.47167055 C11.9446118,3.67101175 11.7393413,3.88630588 11.550306,4.11529411 L12.779106,4.11529411 C12.947106,4.31957647 13.1018354,4.53444704 13.2427295,4.75948234 L11.0866824,4.75948234 C10.957506,4.96630588 10.8401883,5.18117645 10.7362824,5.40352942 L13.5929883,5.40352942 C13.6905413,5.61218824 13.7766589,5.82691765 13.8504942,6.04743528 L10.4787765,6.04743528 C10.4084707,6.25722353 10.3493177,6.47195294 10.3020236,6.69148236 L14.027106,6.69148236 C14.1164707,7.10654119 14.1640472,7.53741179 14.1640472,7.97929412 C14.1640472,8.65468238 14.0537883,9.30451768 13.8504942,9.91129414 L10.4787765,9.91129414 C10.5524707,10.131953 10.6385883,10.3468236 10.7361412,10.5553412 L13.5929883,10.5553412 C13.4888001,10.7776942 13.3717648,10.9925648 13.2424471,11.1995295 L11.0866824,11.1995295 C11.2274354,11.4241412 11.3824472,11.6392942 11.550306,11.843153 L12.7788236,11.843153 C12.5900707,12.0725648 12.3846589,12.2881412 12.1645648,12.4873412 C13.2440001,13.4654118 14.6758119,14.0613177 16.2472472,14.0613177 C19.606259,14.0613177 22.3294119,11.3384471 22.3294119,7.97929412 C22.3294119,4.62056469 19.606259,1.89727056 16.2472472,1.89727056" id="Fill-2" fill="#EE9F2D"></path>
                    <path d="M21.5187766,11.7024001 C21.5187766,11.4103108 21.7555086,11.1729883 22.0481883,11.1729883 C22.3408682,11.1729883 22.5776002,11.4103108 22.5776002,11.7024001 C22.5776002,11.9944893 22.3408682,12.2318118 22.0481883,12.2318118 C21.7555086,12.2318118 21.5187766,11.9944893 21.5187766,11.7024001 L21.5187766,11.7024001 L21.5187766,11.7024001 Z M22.0481883,12.1047834 C22.2704576,12.1047834 22.450861,11.9245096 22.450861,11.7024001 C22.450861,11.4799102 22.2704576,11.300397 22.0481883,11.300397 C21.8255385,11.300397 21.6458964,11.4799102 21.6458964,11.7024001 C21.6458964,11.9245096 21.8255385,12.1047834 22.0481883,12.1047834 L22.0481883,12.1047834 L22.0481883,12.1047834 Z M21.976636,11.9351587 L21.8681655,11.9351587 L21.8681655,11.4700217 L22.0645541,11.4700217 C22.1056587,11.4700217 22.1475244,11.4700217 22.1836813,11.4932215 C22.2213605,11.5187033 22.2426739,11.5635815 22.2426739,11.6099812 C22.2426739,11.6620856 22.2118455,11.7107671 22.1619872,11.7297834 L22.2476217,11.9351587 L22.1273528,11.9351587 L22.0561809,11.7510816 L21.976636,11.7510816 L21.976636,11.9351587 L21.976636,11.9351587 Z M21.976636,11.6712134 L22.0367704,11.6712134 C22.0592258,11.6712134 22.0828228,11.673115 22.1029945,11.6620856 C22.1208826,11.6506759 22.130017,11.6293777 22.130017,11.6088402 C22.130017,11.5909649 22.1189796,11.5704274 22.1037557,11.5616799 C22.0847258,11.5498899 22.0546586,11.5525522 22.0344868,11.5525522 L21.976636,11.5525522 L21.976636,11.6712134 L21.976636,11.6712134 Z" id="Fill-3" fill="#000000"></path>
                    <path d="M6.66178826,8.64522354 C6.59247062,8.63717648 6.56197651,8.63505883 6.51440002,8.63505883 C6.14014121,8.63505883 5.95068238,8.76338825 5.95068238,9.01680002 C5.95068238,9.17308238 6.04315298,9.2724706 6.18743532,9.2724706 C6.45637649,9.2724706 6.65021181,9.01637649 6.66178826,8.64522354 L6.66178826,8.64522354 L6.66178826,8.64522354 Z M7.14192946,9.76320003 L6.59487061,9.76320003 L6.60743534,9.50315298 C6.44056475,9.70870593 6.21792944,9.80640003 5.91538828,9.80640003 C5.55750593,9.80640003 5.31214121,9.52687062 5.31214121,9.12098826 C5.31214121,8.51025885 5.73891767,8.15392942 6.4714824,8.15392942 C6.54630592,8.15392942 6.64230591,8.16070589 6.74056473,8.17327062 C6.76103533,8.0905412 6.76640002,8.05510588 6.76640002,8.01063529 C6.76640002,7.84432942 6.65134121,7.78235294 6.34287061,7.78235294 C6.01985886,7.77868236 5.75345886,7.85929414 5.64404708,7.89529414 C5.65096474,7.85364707 5.73552944,7.33087059 5.73552944,7.33087059 C6.06461179,7.23444707 6.28160004,7.19816473 6.52583532,7.19816473 C7.09280005,7.19816473 7.3930824,7.4527059 7.39251768,7.93383532 C7.39364712,8.06272941 7.37232946,8.22183532 7.33901182,8.43091766 C7.28169416,8.79444708 7.15872945,9.57331767 7.14192946,9.76320003 L7.14192946,9.76320003 L7.14192946,9.76320003 Z" id="Fill-4" fill="#000000"></path>
                    <polyline id="Fill-5" fill="#000000" points="5.03585885 9.76320003 4.37557649 9.76320003 4.75378826 7.39157648 3.90927061 9.76320003 3.45934119 9.76320003 3.40371765 7.40512942 3.00616472 9.76320003 2.38809412 9.76320003 2.90437647 6.67807058 3.85378826 6.67807058 3.91138826 8.40494121 4.49049415 6.67807058 5.54649416 6.67807058 5.03585885 9.76320003"></polyline>
                    <path d="M17.0632472,8.64522354 C16.9942119,8.63717648 16.9635766,8.63505883 16.9161413,8.63505883 C16.5420236,8.63505883 16.3525648,8.76338825 16.3525648,9.01680002 C16.3525648,9.17308238 16.4448942,9.2724706 16.5891766,9.2724706 C16.8581178,9.2724706 17.0520942,9.01637649 17.0632472,8.64522354 L17.0632472,8.64522354 L17.0632472,8.64522354 Z M17.5438119,9.76320003 L16.9967531,9.76320003 L17.0091766,9.50315298 C16.842306,9.70870593 16.6195295,9.80640003 16.3172707,9.80640003 C15.9592472,9.80640003 15.7141648,9.52687062 15.7141648,9.12098826 C15.7141648,8.51025885 16.1406589,8.15392942 16.8733648,8.15392942 C16.9481884,8.15392942 17.0440472,8.16070589 17.1421648,8.17327062 C17.1626354,8.0905412 17.1680001,8.05510588 17.1680001,8.01063529 C17.1680001,7.84432942 17.0530825,7.78235294 16.7446119,7.78235294 C16.4216001,7.77868236 16.1554825,7.85929414 16.0456472,7.89529414 C16.0525648,7.85364707 16.1374119,7.33087059 16.1374119,7.33087059 C16.4664942,7.23444707 16.6833413,7.19816473 16.9272942,7.19816473 C17.4945413,7.19816473 17.7948237,7.4527059 17.7942589,7.93383532 C17.7953883,8.06272941 17.7740707,8.22183532 17.7407531,8.43091766 C17.6837178,8.79444708 17.5604707,9.57331767 17.5438119,9.76320003 L17.5438119,9.76320003 L17.5438119,9.76320003 Z" id="Fill-6" fill="#000000"></path>
                    <path d="M10.0764236,9.72508239 C9.89571773,9.78197652 9.75482359,9.80640003 9.60207066,9.80640003 C9.26451772,9.80640003 9.08028242,9.61242356 9.08028242,9.25524708 C9.07548241,9.14442356 9.12884712,8.85275295 9.17077653,8.58649414 C9.20889418,8.35214119 9.45708241,6.87444707 9.45708241,6.87444707 L10.1134118,6.87444707 L10.036753,7.25421176 L10.4331766,7.25421176 L10.3436707,7.85717649 L9.94583535,7.85717649 C9.86960006,8.33435295 9.76103537,8.9287059 9.75976479,9.00748238 C9.75976479,9.13680003 9.82880008,9.1932706 9.9857883,9.1932706 C10.0610354,9.1932706 10.1193413,9.18564707 10.1638118,9.16955295 L10.0764236,9.72508239" id="Fill-7" fill="#000000"></path>
                    <path d="M12.088753,9.70475298 C11.8632942,9.77364708 11.6457413,9.80696475 11.4152001,9.80640709 C10.6805177,9.80569416 10.297506,9.42197648 10.297506,8.68715295 C10.297506,7.82950589 10.784706,7.19816473 11.4461177,7.19816473 C11.9872472,7.19816473 12.3328472,7.5516706 12.3328472,8.1060706 C12.3328472,8.29002355 12.3091295,8.46960002 12.251953,8.72315295 L10.9449412,8.72315295 C10.900753,9.0871059 11.1336942,9.23872943 11.5154354,9.23872943 C11.750353,9.23872943 11.9622589,9.19030589 12.1978824,9.08075296 L12.088753,9.70475298 L12.088753,9.70475298 Z M11.7198589,8.21731768 C11.7235295,8.16508238 11.7894589,7.7695059 11.4144942,7.7695059 C11.2054119,7.7695059 11.0559059,7.92889412 10.9950589,8.21731768 L11.7198589,8.21731768 L11.7198589,8.21731768 Z" id="Fill-8" fill="#000000"></path>
                    <path d="M7.53792946,8.0473412 C7.53792946,8.36470592 7.69181182,8.58352943 8.04080006,8.74785885 C8.3081883,8.87350589 8.349553,8.91077648 8.349553,9.02470589 C8.349553,9.18112943 8.23167063,9.25171766 7.97035299,9.25171766 C7.77341181,9.25171766 7.59016476,9.2209412 7.37882359,9.15275296 C7.37882359,9.15275296 7.29200006,9.70574122 7.28804711,9.7321412 C7.4381177,9.76489415 7.571953,9.79524708 7.975153,9.80640003 C8.67185888,9.80640003 8.99360005,9.54112943 8.99360005,8.9678118 C8.99360005,8.62305886 8.85891769,8.42075295 8.52814122,8.26870589 C8.25129418,8.14164707 8.21952947,8.1132706 8.21952947,7.99609414 C8.21952947,7.86042354 8.32922359,7.79124706 8.54268241,7.79124706 C8.67228241,7.79124706 8.8493177,7.80508238 9.01703535,7.82894118 L9.11105888,7.24701176 C8.94009419,7.21990588 8.68089419,7.19816473 8.52997653,7.19816473 C7.79134123,7.19816473 7.53567062,7.58400002 7.53792946,8.0473412" id="Fill-9" fill="#000000"></path>
                    <path d="M15.2999531,7.26409413 C15.4833413,7.26409413 15.654306,7.31223529 15.8899295,7.43082353 L15.9979295,6.76122353 C15.9012236,6.72324707 15.560706,6.50032941 15.2722825,6.50032941 C14.8304001,6.50032941 14.4568472,6.71957649 14.1941178,7.08141176 C13.8109648,6.95449413 13.6534119,7.21101176 13.4602824,7.46654119 L13.288753,7.50649414 C13.3017413,7.42235294 13.3134589,7.33877649 13.309506,7.25421176 L12.703153,7.25421176 C12.6202824,8.03068236 12.4734589,8.81717648 12.3585413,9.59463533 L12.3286119,9.76320003 L12.9891766,9.76320003 C13.0994354,9.04687061 13.1598589,8.58818826 13.1965648,8.2777412 L13.4453177,8.13938827 C13.4824472,8.00117649 13.5987766,7.95444707 13.8321413,7.96009414 C13.8016472,8.12385883 13.7852707,8.29609415 13.7852707,8.47454119 C13.7852707,9.29534119 14.2281413,9.80640003 14.9389648,9.80640003 C15.1220707,9.80640003 15.2792001,9.78225886 15.5224472,9.71632946 L15.6386354,9.01298826 C15.4198119,9.12070592 15.2402354,9.17138826 15.0776001,9.17138826 C14.6937413,9.17138826 14.461506,8.88804708 14.461506,8.41976474 C14.461506,7.74042353 14.8069648,7.26409413 15.2999531,7.26409413" id="Fill-10" fill="#000000"></path>
                    <polyline id="Fill-12" fill="#FFFFFF" points="5.22588237 9.57995299 4.56545886 9.57995299 4.94395296 7.20861178 4.09943532 9.57995299 3.64936471 9.57995299 3.5937412 7.22216472 3.19618824 9.57995299 2.57811765 9.57995299 3.09440002 6.49524706 4.04381178 6.49524706 4.07049413 8.40494121 4.71101179 6.49524706 5.73651768 6.49524706 5.22588237 9.57995299"></polyline>
                    <path d="M20.8901178,6.67807058 L20.7437178,7.56945883 C20.5631531,7.33185883 20.3691766,7.15990589 20.1130825,7.15990589 C19.779906,7.15990589 19.476659,7.41247061 19.2781649,7.78418825 C19.0017413,7.72687059 18.7158589,7.62960001 18.7158589,7.62960001 L18.7157178,7.63185885 C18.7380237,7.42404706 18.7469178,7.29727061 18.7449413,7.25421176 L18.1384472,7.25421176 C18.0558589,8.03068236 17.9090354,8.81717648 17.7942589,9.59463533 L17.7640472,9.76320003 L18.4244707,9.76320003 C18.5136943,9.18395295 18.5820237,8.70296473 18.6322825,8.32150592 C18.8578825,8.11764708 18.9708237,7.93976473 19.1988237,7.95162355 C19.0978825,8.19571768 19.0387295,8.47694121 19.0387295,8.76536474 C19.0387295,9.3926118 19.3560943,9.80640003 19.8360943,9.80640003 C20.0780707,9.80640003 20.2637178,9.72296474 20.4448472,9.52955299 L20.4139295,9.7627765 L21.0384943,9.7627765 L21.5413649,6.67807058 L20.8901178,6.67807058 L20.8901178,6.67807058 Z M20.0643766,9.18338827 C19.8396237,9.18338827 19.7261178,9.01708236 19.7261178,8.68884707 C19.7261178,8.19571768 19.9385884,7.84602354 20.2381648,7.84602354 C20.4650355,7.84602354 20.587859,8.01896473 20.587859,8.33760003 C20.587859,8.83496472 20.3720001,9.18338827 20.0643766,9.18338827 L20.0643766,9.18338827 L20.0643766,9.18338827 Z" id="Fill-11" fill="#000000"></path>
                    <path d="M6.85167062,8.46240002 C6.78249414,8.45435296 6.75185887,8.45223532 6.70442358,8.45223532 C6.33016473,8.45223532 6.14084708,8.58056473 6.14084708,8.8339765 C6.14084708,8.98997648 6.23331768,9.08964708 6.37731768,9.08964708 C6.6465412,9.08964708 6.84037652,8.83355298 6.85167062,8.46240002 L6.85167062,8.46240002 L6.85167062,8.46240002 Z M7.33209416,9.57995299 L6.78503532,9.57995299 L6.79745886,9.32032942 C6.63072946,9.52545885 6.4078118,9.62357652 6.10555299,9.62357652 C5.74752945,9.62357652 5.50230592,9.34404707 5.50230592,8.93816474 C5.50230592,8.32715295 5.92894122,7.9711059 6.66164711,7.9711059 C6.73647062,7.9711059 6.83247061,7.97788238 6.93058828,7.99044707 C6.95105888,7.90771765 6.95642358,7.87228236 6.95642358,7.82752943 C6.95642358,7.66122353 6.84150592,7.59952942 6.53303532,7.59952942 C6.20988238,7.59585885 5.94362356,7.67647059 5.83407063,7.71204706 C5.84098826,7.67054118 5.92555299,7.14832941 5.92555299,7.14832941 C6.25449415,7.05148236 6.47176474,7.01520002 6.71571768,7.01520002 C7.28282356,7.01520002 7.58324711,7.26988235 7.58268239,7.75058824 C7.58367063,7.88004708 7.56221182,8.03901176 7.52903534,8.2478118 C7.47185887,8.61120003 7.348753,9.39049415 7.33209416,9.57995299 L7.33209416,9.57995299 L7.33209416,9.57995299 Z" id="Fill-13" fill="#FFFFFF"></path>
                    <path d="M16.1880942,6.57825882 L16.079953,7.24800001 C15.8444707,7.12955296 15.6733648,7.08127061 15.4901178,7.08127061 C14.9971295,7.08127061 14.6515295,7.55760001 14.6515295,8.23694119 C14.6515295,8.70522356 14.883906,8.98842355 15.2676236,8.98842355 C15.4302589,8.98842355 15.6096942,8.93788236 15.8285178,8.83002355 L15.7126119,9.53308238 C15.4692236,9.59943534 15.3122354,9.62357652 15.1289883,9.62357652 C14.418306,9.62357652 13.9752942,9.11251767 13.9752942,8.29171767 C13.9752942,7.18884708 14.5871531,6.41802352 15.462306,6.41802352 C15.7505883,6.41802352 16.0912472,6.54028236 16.1880942,6.57825882" id="Fill-14" fill="#FFFFFF"></path>
                    <path d="M17.2534119,8.46240002 C17.1842354,8.45435296 17.1537413,8.45223532 17.1061648,8.45223532 C16.7320472,8.45223532 16.5425883,8.58056473 16.5425883,8.8339765 C16.5425883,8.98997648 16.6350589,9.08964708 16.7792001,9.08964708 C17.0481413,9.08964708 17.2421178,8.83355298 17.2534119,8.46240002 L17.2534119,8.46240002 L17.2534119,8.46240002 Z M17.7338354,9.57995299 L17.1866354,9.57995299 L17.1992001,9.32032942 C17.0323295,9.52545885 16.8095531,9.62357652 16.5072942,9.62357652 C16.1494119,9.62357652 15.9040472,9.34404707 15.9040472,8.93816474 C15.9040472,8.32715295 16.3308236,7.9711059 17.0632472,7.9711059 C17.1382119,7.9711059 17.2340707,7.97788238 17.3323295,7.99044707 C17.352659,7.90771765 17.3581648,7.87228236 17.3581648,7.82752943 C17.3581648,7.66122353 17.2432472,7.59952942 16.9347766,7.59952942 C16.6117648,7.59585885 16.3453648,7.67647059 16.2358119,7.71204706 C16.2427295,7.67054118 16.3274354,7.14832941 16.3274354,7.14832941 C16.6563766,7.05148236 16.873506,7.01520002 17.1174589,7.01520002 C17.684706,7.01520002 17.9849884,7.26988235 17.9842825,7.75058824 C17.9854119,7.88004708 17.9640942,8.03901176 17.9307766,8.2478118 C17.8737413,8.61120003 17.7503531,9.39049415 17.7338354,9.57995299 L17.7338354,9.57995299 L17.7338354,9.57995299 Z" id="Fill-15" fill="#FFFFFF"></path>
                    <path d="M10.2664471,9.54197649 C10.0856001,9.59887062 9.94470595,9.62357652 9.79209418,9.62357652 C9.45454123,9.62357652 9.27030594,9.42960001 9.27030594,9.07242356 C9.26564712,8.96131767 9.31901182,8.66992943 9.36094123,8.40367062 C9.39891769,8.16903533 9.64710593,6.69148236 9.64710593,6.69148236 L10.3032942,6.69148236 L10.2267765,7.07138825 L10.5636236,7.07138825 L10.4739765,7.6740706 L10.1360001,7.6740706 C10.0597648,8.15152943 9.9509177,8.74545886 9.9497883,8.82437648 C9.9497883,8.95411767 10.0189648,9.01016474 10.1758118,9.01016474 C10.2510589,9.01016474 10.3092236,9.00282355 10.3538354,8.98672943 L10.2664471,9.54197649" id="Fill-16" fill="#FFFFFF"></path>
                    <path d="M12.2787765,9.52192942 C12.0534589,9.59082356 11.8356236,9.62400005 11.6052236,9.62358052 C10.8705412,9.62287061 10.4875295,9.23915296 10.4875295,8.50432943 C10.4875295,7.6464 10.9747295,7.01520002 11.6361413,7.01520002 C12.1772707,7.01520002 12.5228707,7.36856471 12.5228707,7.92324708 C12.5228707,8.10734119 12.499153,8.28691766 12.4421177,8.54032943 L11.135106,8.54032943 C11.0909177,8.90428239 11.3238589,9.05604707 11.7056001,9.05604707 C11.9403765,9.05604707 12.1524236,9.00748238 12.387906,8.89764707 L12.2787765,9.52192942 L12.2787765,9.52192942 Z M11.9097413,8.0340706 C11.9136942,7.98197648 11.9794824,7.58625882 11.6043766,7.58625882 C11.3954354,7.58625882 11.2459295,7.7460706 11.1850824,8.0340706 L11.9097413,8.0340706 L11.9097413,8.0340706 Z" id="Fill-17" fill="#FFFFFF"></path>
                    <path d="M7.72795298,7.86451765 C7.72795298,8.18188236 7.88183534,8.40042354 8.23082358,8.56503533 C8.49821182,8.69068238 8.53957652,8.72809415 8.53957652,8.84188238 C8.53957652,8.99830592 8.421553,9.06889414 8.16051769,9.06889414 C7.96343533,9.06889414 7.78018828,9.03811768 7.56870592,8.96992945 C7.56870592,8.96992945 7.48216476,9.52291767 7.47821181,9.54931768 C7.62800004,9.58207063 7.76197652,9.61200003 8.16517652,9.62357652 C8.86202359,9.62357652 9.1836236,9.35830592 9.1836236,8.78512943 C9.1836236,8.44023531 9.0490824,8.23792943 8.71816477,8.08588238 C8.44145888,7.95854118 8.40941183,7.93058824 8.40941183,7.81327059 C8.40941183,7.67774118 8.51938829,7.60800001 8.73270593,7.60800001 C8.86216477,7.60800001 9.03920007,7.62225882 9.20720006,7.64611766 L9.3010824,7.06404706 C9.13025889,7.03694118 8.87105889,7.01520002 8.72014123,7.01520002 C7.98136475,7.01520002 7.72583533,7.40075294 7.72795298,7.86451765" id="Fill-18" fill="#FFFFFF"></path>
                    <path d="M21.2285178,9.57995299 L20.6038119,9.57995299 L20.6348707,9.34644709 C20.4537413,9.54014122 20.2680943,9.62357652 20.0261178,9.62357652 C19.5461178,9.62357652 19.2288943,9.20978825 19.2288943,8.58254119 C19.2288943,7.74804706 19.7208943,7.04456471 20.3032472,7.04456471 C20.5593413,7.04456471 20.7531766,7.14917647 20.9336001,7.38663532 L21.0801413,6.49524706 L21.7313884,6.49524706 L21.2285178,9.57995299 L21.2285178,9.57995299 Z M20.2545413,9.00028238 C20.5620237,9.00028238 20.7780237,8.65185886 20.7780237,8.15477648 C20.7780237,7.83614118 20.655059,7.66320002 20.4281884,7.66320002 C20.1287531,7.66320002 19.9160001,8.01275294 19.9160001,8.50602355 C19.9160001,8.83425885 20.0297884,9.00028238 20.2545413,9.00028238 L20.2545413,9.00028238 L20.2545413,9.00028238 Z" id="Fill-19" fill="#FFFFFF"></path>
                    <path d="M18.3286119,7.07138825 C18.2458825,7.84785885 18.0990589,8.63435296 17.9842825,9.41138825 L17.9540707,9.57995299 L18.6144943,9.57995299 C18.8506825,8.04592942 18.907859,7.74635294 19.2781649,7.7839059 C19.3371766,7.46992942 19.4470119,7.19491765 19.5288943,7.05614119 C19.2523296,6.99854119 19.0978825,7.15482354 18.8957178,7.45171766 C18.9116707,7.32338825 18.9408943,7.19872941 18.935106,7.07138825 L18.3286119,7.07138825" id="Fill-20" fill="#FFFFFF"></path>
                    <path d="M12.8931766,7.07138825 C12.810306,7.84785885 12.6634824,8.63435296 12.548706,9.41138825 L12.5186354,9.57995299 L13.1793413,9.57995299 C13.4152471,8.04592942 13.4722825,7.74635294 13.8424472,7.7839059 C13.9017413,7.46992942 14.0115766,7.19491765 14.0931766,7.05614119 C13.8168942,6.99854119 13.662306,7.15482354 13.4602824,7.45171766 C13.4762354,7.32338825 13.5051766,7.19872941 13.4996707,7.07138825 L12.8931766,7.07138825" id="Fill-21" fill="#FFFFFF"></path>
                    <path d="M21.5184943,9.71666081 C21.5184943,9.42332524 21.7556068,9.18705885 22.0479061,9.18705885 C22.3405859,9.18705885 22.5773178,9.42332524 22.5773178,9.71666081 C22.5773178,10.0084745 22.3405859,10.2458824 22.0479061,10.2458824 C21.7556068,10.2458824 21.5184943,10.0084745 21.5184943,9.71666081 L21.5184943,9.71666081 L21.5184943,9.71666081 Z M22.0479061,10.1188083 C22.2705559,10.1188083 22.4501982,9.93846971 22.4501982,9.71666081 C22.4501982,9.49447151 22.2705559,9.31413291 22.0479061,9.31413291 C21.8256369,9.31413291 21.6452334,9.49447151 21.6452334,9.71666081 C21.6452334,9.93846971 21.8256369,10.1188083 22.0479061,10.1188083 L22.0479061,10.1188083 L22.0479061,10.1188083 Z M21.9763537,9.94798118 L21.8678832,9.94798118 L21.8678832,9.48381857 L22.0646523,9.48381857 C22.1053764,9.48381857 22.1476228,9.48457946 22.1830184,9.50702673 C22.2210781,9.53289806 22.2427722,9.57703153 22.2427722,9.62344785 C22.2427722,9.67595149 22.2119438,9.72503099 22.1617048,9.74367352 L22.24772,9.94798118 L22.1270705,9.94798118 L22.0558986,9.76459892 L21.9763537,9.76459892 L21.9763537,9.94798118 L21.9763537,9.94798118 Z M21.9763537,9.68508256 L22.0361075,9.68508256 C22.0585628,9.68508256 22.082921,9.68660435 22.1027122,9.67595149 C22.1206002,9.66453766 22.1297346,9.64285137 22.1297346,9.62230647 C22.1297346,9.60518572 22.1190779,9.58464081 22.1034733,9.57436836 C22.0848241,9.56371542 22.0539957,9.56675907 22.0338239,9.56675907 L21.9763537,9.56675907 L21.9763537,9.68508256 L21.9763537,9.68508256 Z" id="Fill-22" fill="#FFFFFF"></path>
                </g>
            </g>
        </g>
    </g>
</svg>