<?xml version="1.0" encoding="UTF-8"?>
<svg width="25px" height="17px" viewBox="0 0 25 17" version="1.1" xmlns="http://www.w3.org/2000/svg" xmlns:xlink="http://www.w3.org/1999/xlink">
    <title>5B102491-7E8D-4436-9694-98149E4315AF</title>
    <g id="Page-1" stroke="none" stroke-width="1" fill="none" fill-rule="evenodd">
        <g id="DT-Footer-v1" transform="translate(-1302.000000, -845.000000)">
            <g id="Payments" transform="translate(1128.000000, 845.500000)">
                <g id="PayPal" transform="translate(174.000000, 0.000000)">
                    <rect id="Rectangle" fill="#FFFFFF" x="0" y="0" width="25" height="16"></rect>
                    <path d="M9.24308522,6.215 L7.88308522,6.215 C7.78308522,6.215 7.70308522,6.275 7.70308522,6.375 L7.14308522,9.875 C7.12308522,9.935 7.18308522,10.015 7.26308522,10.015 L7.92308522,10.015 C8.02308522,10.015 8.10308522,9.955 8.10308522,9.855 L8.24308522,8.915 C8.26308522,8.815 8.34308522,8.755 8.42308522,8.755 L8.86308522,8.755 C9.76308522,8.755 10.2830852,8.315 10.4230852,7.455 C10.4830852,7.075 10.4230852,6.775 10.2430852,6.575 C10.0430852,6.355 9.70308522,6.215 9.24308522,6.215 Z M9.40308522,7.515 C9.32308522,8.015 8.96308522,8.015 8.58308522,8.015 L8.38308522,8.015 L8.52308522,7.095 C8.52308522,7.035 8.58308522,6.995 8.64308522,6.995 L8.74308522,6.995 C8.98308522,6.995 9.22308522,6.995 9.34308522,7.135 C9.40308522,7.215 9.42308522,7.335 9.40308522,7.515 Z" id="Shape" fill="#253B80" fill-rule="nonzero"></path>
                    <path d="M13.3430852,7.495 L12.6830852,7.495 C12.6230852,7.495 12.5830852,7.535 12.5630852,7.595 L12.5430852,7.775 L12.5030852,7.715 C12.3630852,7.515 12.0430852,7.435 11.7230852,7.435 C11.0030852,7.435 10.3830852,7.975 10.2630852,8.755 C10.2030852,9.135 10.2830852,9.515 10.5030852,9.755 C10.7030852,9.995 10.9830852,10.095 11.3230852,10.095 C11.9030852,10.095 12.2230852,9.715 12.2230852,9.715 L12.2030852,9.895 C12.1830852,9.955 12.2430852,10.035 12.3230852,10.035 L12.9230852,10.035 C13.0230852,10.035 13.1030852,9.975 13.1030852,9.875 L13.4630852,7.635 C13.4630852,7.555 13.4030852,7.495 13.3430852,7.495 Z M12.4230852,8.755 C12.3630852,9.135 12.0630852,9.375 11.6830852,9.375 C11.4830852,9.375 11.3430852,9.315 11.2430852,9.195 C11.1430852,9.075 11.1030852,8.915 11.1430852,8.735 C11.2030852,8.355 11.5030852,8.095 11.8830852,8.095 C12.0630852,8.095 12.2230852,8.155 12.3230852,8.275 C12.4030852,8.415 12.4430852,8.575 12.4230852,8.755 Z" id="Shape" fill="#253B80" fill-rule="nonzero"></path>
                    <path d="M16.8230852,7.495 L16.1630852,7.495 C16.1030852,7.495 16.0430852,7.535 16.0030852,7.575 L15.1030852,8.915 L14.7230852,7.635 C14.7030852,7.555 14.6230852,7.495 14.5430852,7.495 L13.9030852,7.495 C13.8230852,7.495 13.7630852,7.575 13.8030852,7.655 L14.5230852,9.775 L13.8430852,10.735 C13.7830852,10.815 13.8430852,10.915 13.9430852,10.915 L14.6030852,10.915 C14.6630852,10.915 14.7230852,10.875 14.7630852,10.835 L16.9230852,7.675 C16.9630852,7.595 16.9230852,7.495 16.8230852,7.495 Z" id="Path" fill="#253B80" fill-rule="nonzero"></path>
                    <path d="M19.0030852,6.215 L17.6430852,6.215 C17.5430852,6.215 17.4630852,6.275 17.4630852,6.375 L16.9030852,9.875 C16.8830852,9.935 16.9430852,10.015 17.0230852,10.015 L17.7230852,10.015 C17.7830852,10.015 17.8430852,9.975 17.8630852,9.895 L18.0230852,8.895 C18.0430852,8.795 18.1230852,8.735 18.2030852,8.735 L18.6430852,8.735 C19.5430852,8.735 20.0630852,8.295 20.2030852,7.435 C20.2630852,7.055 20.2030852,6.755 20.0230852,6.555 C19.8030852,6.355 19.4630852,6.215 19.0030852,6.215 Z M19.1630852,7.515 C19.0830852,8.015 18.7230852,8.015 18.3430852,8.015 L18.1430852,8.015 L18.2830852,7.095 C18.2830852,7.035 18.3430852,6.995 18.4030852,6.995 L18.5030852,6.995 C18.7430852,6.995 18.9830852,6.995 19.1030852,7.135 C19.1630852,7.215 19.1830852,7.335 19.1630852,7.515 Z" id="Shape" fill="#179BD7" fill-rule="nonzero"></path>
                    <path d="M23.0830852,7.495 L22.4230852,7.495 C22.3630852,7.495 22.3230852,7.535 22.3030852,7.595 L22.2830852,7.775 L22.2430852,7.715 C22.1030852,7.515 21.7830852,7.435 21.4630852,7.435 C20.7430852,7.435 20.1230852,7.975 20.0030852,8.755 C19.9430852,9.135 20.0230852,9.515 20.2430852,9.755 C20.4430852,9.995 20.7230852,10.095 21.0630852,10.095 C21.6430852,10.095 21.9630852,9.715 21.9630852,9.715 L21.9430852,9.895 C21.9230852,9.955 21.9830852,10.035 22.0630852,10.035 L22.6430852,10.035 C22.7430852,10.035 22.8230852,9.975 22.8230852,9.875 L23.1830852,7.635 C23.2230852,7.555 23.1630852,7.495 23.0830852,7.495 Z M22.1830852,8.755 C22.1230852,9.135 21.8230852,9.375 21.4430852,9.375 C21.2630852,9.375 21.1030852,9.315 21.0030852,9.195 C20.9030852,9.075 20.8630852,8.915 20.9030852,8.735 C20.9630852,8.355 21.2630852,8.095 21.6430852,8.095 C21.8230852,8.095 21.9830852,8.155 22.0830852,8.275 C22.1630852,8.415 22.2030852,8.575 22.1830852,8.755 Z" id="Shape" fill="#179BD7" fill-rule="nonzero"></path>
                    <path d="M23.8630852,6.315 L23.3030852,9.895 C23.2830852,9.955 23.3430852,10.035 23.4230852,10.035 L23.9830852,10.035 C24.0830852,10.035 24.1630852,9.975 24.1630852,9.875 L24.7230852,6.375 C24.7430852,6.315 24.6830852,6.235 24.6030852,6.235 L23.9630852,6.235 C23.9230852,6.215 23.8630852,6.275 23.8630852,6.315 Z" id="Path" fill="#179BD7" fill-rule="nonzero"></path>
                    <path d="M1.46308522,10.715 L1.56308522,10.055 L1.32308522,10.055 L0.223085224,10.055 L0.983085224,5.135 C0.983085224,5.115 1.00308522,5.095 1.00308522,5.095 C1.02308522,5.095 1.04308522,5.075 1.04308522,5.075 L2.92308522,5.075 C3.54308522,5.075 3.98308522,5.215 4.20308522,5.475 C4.30308522,5.595 4.38308522,5.715 4.40308522,5.855 C4.44308522,5.995 4.44308522,6.175 4.40308522,6.375 L4.40308522,6.395 L4.40308522,6.535 L4.50308522,6.595 C4.58308522,6.635 4.66308522,6.695 4.72308522,6.755 C4.82308522,6.855 4.86308522,6.995 4.90308522,7.135 C4.92308522,7.295 4.92308522,7.475 4.88308522,7.695 C4.84308522,7.935 4.76308522,8.155 4.64308522,8.335 C4.54308522,8.495 4.42308522,8.635 4.28308522,8.735 C4.14308522,8.835 3.98308522,8.915 3.78308522,8.955 C3.60308522,8.995 3.40308522,9.035 3.16308522,9.035 L3.02308522,9.035 C2.92308522,9.035 2.82308522,9.075 2.74308522,9.135 C2.66308522,9.195 2.60308522,9.295 2.60308522,9.395 L2.58308522,9.455 L2.40308522,10.635 L2.40308522,10.675 C2.40308522,10.695 2.40308522,10.695 2.38308522,10.695 C2.38308522,10.695 2.36308522,10.695 2.36308522,10.695 C2.36308522,10.715 1.46308522,10.715 1.46308522,10.715 Z" id="Path" fill="#253B80" fill-rule="nonzero"></path>
                    <path d="M4.60308522,6.415 L4.60308522,6.415 L4.60308522,6.415 C4.60308522,6.435 4.60308522,6.475 4.60308522,6.515 C4.36308522,7.795 3.50308522,8.215 2.42308522,8.215 L1.86308522,8.215 C1.72308522,8.215 1.62308522,8.315 1.60308522,8.435 L1.60308522,8.435 L1.60308522,8.435 L1.32308522,10.215 L1.24308522,10.715 C1.22308522,10.795 1.30308522,10.875 1.38308522,10.875 L2.36308522,10.875 C2.48308522,10.875 2.58308522,10.795 2.60308522,10.675 L2.60308522,10.635 L2.78308522,9.475 L2.80308522,9.415 C2.82308522,9.295 2.92308522,9.215 3.04308522,9.215 L3.18308522,9.215 C4.12308522,9.215 4.86308522,8.835 5.08308522,7.715 C5.18308522,7.255 5.12308522,6.855 4.88308522,6.595 C4.80308522,6.535 4.72308522,6.455 4.60308522,6.415 Z" id="Path" fill="#179BD7" fill-rule="nonzero"></path>
                    <path d="M4.36308522,6.315 C4.32308522,6.295 4.28308522,6.275 4.24308522,6.275 C4.20308522,6.275 4.16308522,6.255 4.12308522,6.255 C3.98308522,6.235 3.80308522,6.215 3.64308522,6.215 L2.16308522,6.215 C2.12308522,6.215 2.08308522,6.215 2.06308522,6.235 C1.98308522,6.275 1.94308522,6.335 1.92308522,6.415 L1.60308522,8.395 L1.60308522,8.455 C1.62308522,8.315 1.74308522,8.235 1.86308522,8.235 L2.42308522,8.235 C3.50308522,8.235 4.34308522,7.795 4.60308522,6.535 C4.60308522,6.475 4.60308522,6.435 4.60308522,6.415 C4.54308522,6.375 4.46308522,6.355 4.40308522,6.335 C4.38308522,6.315 4.36308522,6.315 4.36308522,6.315 Z" id="Path" fill="#222D65" fill-rule="nonzero"></path>
                    <path d="M1.92308522,6.415 C1.94308522,6.335 1.98308522,6.275 2.06308522,6.235 C2.10308522,6.215 2.12308522,6.215 2.16308522,6.215 L3.64308522,6.215 C3.82308522,6.215 3.98308522,6.235 4.12308522,6.255 C4.16308522,6.255 4.20308522,6.275 4.24308522,6.275 C4.28308522,6.275 4.32308522,6.295 4.36308522,6.315 C4.38308522,6.315 4.40308522,6.335 4.42308522,6.335 C4.50308522,6.355 4.56308522,6.395 4.62308522,6.415 C4.70308522,5.955 4.62308522,5.635 4.36308522,5.335 C4.08308522,5.015 3.58308522,4.875 2.92308522,4.875 L1.04308522,4.875 C0.923085224,4.875 0.803085224,4.975 0.783085224,5.095 L0.00308522399,10.055 C-0.016914776,10.155 0.063085224,10.235 0.163085224,10.235 L1.32308522,10.235 L1.60308522,8.395 L1.92308522,6.415 Z" id="Path" fill="#253B80" fill-rule="nonzero"></path>
                </g>
            </g>
        </g>
    </g>
</svg>