<?xml version="1.0" encoding="UTF-8"?>
<svg xmlns="http://www.w3.org/2000/svg" xmlns:xlink="http://www.w3.org/1999/xlink" width="25pt" height="11pt" viewBox="0 0 25 11" version="1.1">
<g id="surface1">
<path style=" stroke:none;fill-rule:nonzero;fill:rgb(6.27451%,16.078431%,55.686275%);fill-opacity:1;" d="M 0.34375 10.429688 L 0.34375 9.542969 L 0.988281 9.542969 L 0.988281 9.695312 L 0.519531 9.695312 L 0.519531 9.890625 L 0.953125 9.890625 L 0.953125 10.039062 L 0.519531 10.039062 L 0.519531 10.28125 L 1.003906 10.28125 L 1.003906 10.429688 Z M 0.34375 10.429688 "/>
<path style=" stroke:none;fill-rule:nonzero;fill:rgb(6.27451%,16.078431%,55.686275%);fill-opacity:1;" d="M 1.160156 9.542969 L 1.324219 9.542969 L 1.324219 9.703125 L 1.160156 9.703125 Z M 1.160156 9.789062 L 1.324219 9.789062 L 1.324219 10.429688 L 1.160156 10.429688 Z M 1.160156 9.789062 "/>
<path style=" stroke:none;fill-rule:nonzero;fill:rgb(6.27451%,16.078431%,55.686275%);fill-opacity:1;" d="M 2.078125 10.429688 L 1.910156 10.429688 L 1.910156 10.101562 C 1.910156 10.03125 1.90625 9.988281 1.898438 9.96875 C 1.890625 9.949219 1.882812 9.933594 1.863281 9.921875 C 1.847656 9.910156 1.828125 9.902344 1.808594 9.902344 C 1.777344 9.902344 1.753906 9.910156 1.730469 9.925781 C 1.707031 9.945312 1.691406 9.964844 1.683594 9.992188 C 1.675781 10.019531 1.671875 10.066406 1.671875 10.136719 L 1.671875 10.429688 L 1.503906 10.429688 L 1.503906 9.789062 L 1.660156 9.789062 L 1.660156 9.882812 C 1.714844 9.808594 1.78125 9.773438 1.867188 9.773438 C 1.902344 9.773438 1.933594 9.78125 1.964844 9.792969 C 1.996094 9.808594 2.019531 9.824219 2.035156 9.84375 C 2.050781 9.867188 2.0625 9.890625 2.066406 9.917969 C 2.074219 9.941406 2.078125 9.980469 2.078125 10.03125 Z M 2.078125 10.429688 "/>
<path style=" stroke:none;fill-rule:nonzero;fill:rgb(6.27451%,16.078431%,55.686275%);fill-opacity:1;" d="M 2.417969 9.542969 L 2.417969 9.871094 C 2.472656 9.804688 2.539062 9.773438 2.613281 9.773438 C 2.648438 9.773438 2.683594 9.78125 2.714844 9.796875 C 2.746094 9.808594 2.769531 9.828125 2.785156 9.851562 C 2.800781 9.875 2.8125 9.898438 2.816406 9.925781 C 2.824219 9.953125 2.824219 9.996094 2.824219 10.054688 L 2.824219 10.429688 L 2.660156 10.429688 L 2.660156 10.089844 C 2.660156 10.023438 2.65625 9.980469 2.648438 9.960938 C 2.644531 9.945312 2.632812 9.929688 2.617188 9.917969 C 2.601562 9.910156 2.582031 9.902344 2.554688 9.902344 C 2.527344 9.902344 2.503906 9.910156 2.480469 9.921875 C 2.460938 9.9375 2.445312 9.957031 2.433594 9.984375 C 2.425781 10.011719 2.417969 10.054688 2.417969 10.109375 L 2.417969 10.429688 L 2.253906 10.429688 L 2.253906 9.542969 Z M 2.417969 9.542969 "/>
<path style=" stroke:none;fill-rule:nonzero;fill:rgb(6.27451%,16.078431%,55.686275%);fill-opacity:1;" d="M 3.367188 10.226562 L 3.53125 10.253906 C 3.511719 10.316406 3.476562 10.363281 3.429688 10.394531 C 3.386719 10.425781 3.328125 10.441406 3.257812 10.441406 C 3.148438 10.441406 3.070312 10.40625 3.015625 10.332031 C 2.972656 10.277344 2.953125 10.203125 2.953125 10.113281 C 2.953125 10.007812 2.980469 9.925781 3.035156 9.863281 C 3.089844 9.804688 3.160156 9.773438 3.242188 9.773438 C 3.335938 9.773438 3.410156 9.804688 3.464844 9.867188 C 3.515625 9.929688 3.542969 10.027344 3.539062 10.15625 L 3.125 10.15625 C 3.125 10.207031 3.140625 10.246094 3.164062 10.273438 C 3.191406 10.300781 3.222656 10.316406 3.261719 10.316406 C 3.285156 10.316406 3.308594 10.308594 3.324219 10.292969 C 3.34375 10.28125 3.355469 10.257812 3.367188 10.226562 M 3.375 10.054688 C 3.375 10.003906 3.363281 9.96875 3.339844 9.941406 C 3.316406 9.917969 3.285156 9.902344 3.253906 9.902344 C 3.214844 9.902344 3.1875 9.917969 3.164062 9.945312 C 3.136719 9.96875 3.128906 10.007812 3.128906 10.054688 Z M 3.375 10.054688 "/>
<path style=" stroke:none;fill-rule:nonzero;fill:rgb(6.27451%,16.078431%,55.686275%);fill-opacity:1;" d="M 3.683594 9.542969 L 3.851562 9.542969 L 3.851562 9.703125 L 3.683594 9.703125 Z M 3.683594 9.789062 L 3.851562 9.789062 L 3.851562 10.429688 L 3.683594 10.429688 Z M 3.683594 9.789062 "/>
<path style=" stroke:none;fill-rule:nonzero;fill:rgb(6.27451%,16.078431%,55.686275%);fill-opacity:1;" d="M 4.316406 9.789062 L 4.316406 9.921875 L 4.203125 9.921875 L 4.203125 10.179688 C 4.203125 10.234375 4.207031 10.265625 4.207031 10.273438 L 4.222656 10.292969 L 4.25 10.304688 C 4.265625 10.304688 4.289062 10.296875 4.316406 10.285156 L 4.332031 10.417969 C 4.292969 10.433594 4.25 10.441406 4.199219 10.441406 C 4.171875 10.441406 4.144531 10.4375 4.121094 10.429688 C 4.09375 10.417969 4.078125 10.40625 4.066406 10.386719 C 4.054688 10.371094 4.046875 10.351562 4.042969 10.320312 C 4.039062 10.300781 4.039062 10.261719 4.039062 10.203125 L 4.039062 9.921875 L 3.960938 9.921875 L 3.960938 9.789062 L 4.039062 9.789062 L 4.039062 9.660156 L 4.203125 9.5625 L 4.203125 9.789062 Z M 4.316406 9.789062 "/>
<path style=" stroke:none;fill-rule:nonzero;fill:rgb(6.27451%,16.078431%,55.686275%);fill-opacity:1;" d="M 4.441406 9.542969 L 4.609375 9.542969 L 4.609375 10.429688 L 4.441406 10.429688 Z M 4.441406 9.542969 "/>
<path style=" stroke:none;fill-rule:nonzero;fill:rgb(6.27451%,16.078431%,55.686275%);fill-opacity:1;" d="M 4.789062 9.542969 L 4.953125 9.542969 L 4.953125 9.703125 L 4.789062 9.703125 Z M 4.789062 9.789062 L 4.953125 9.789062 L 4.953125 10.429688 L 4.789062 10.429688 Z M 4.789062 9.789062 "/>
<path style=" stroke:none;fill-rule:nonzero;fill:rgb(6.27451%,16.078431%,55.686275%);fill-opacity:1;" d="M 5.679688 9.976562 L 5.515625 10.007812 C 5.511719 9.972656 5.5 9.949219 5.480469 9.933594 C 5.460938 9.914062 5.433594 9.90625 5.402344 9.90625 C 5.363281 9.90625 5.328125 9.921875 5.304688 9.949219 C 5.277344 9.980469 5.265625 10.027344 5.265625 10.097656 C 5.265625 10.171875 5.277344 10.226562 5.304688 10.257812 C 5.328125 10.289062 5.363281 10.304688 5.40625 10.304688 C 5.4375 10.304688 5.460938 10.296875 5.484375 10.277344 C 5.503906 10.257812 5.515625 10.226562 5.523438 10.183594 L 5.6875 10.210938 C 5.671875 10.289062 5.640625 10.347656 5.589844 10.382812 C 5.542969 10.421875 5.476562 10.441406 5.398438 10.441406 C 5.304688 10.441406 5.230469 10.414062 5.175781 10.355469 C 5.125 10.296875 5.09375 10.214844 5.09375 10.109375 C 5.09375 10.003906 5.125 9.921875 5.179688 9.863281 C 5.234375 9.804688 5.308594 9.773438 5.402344 9.773438 C 5.476562 9.773438 5.539062 9.789062 5.582031 9.824219 C 5.628906 9.859375 5.660156 9.910156 5.679688 9.976562 "/>
<path style=" stroke:none;fill-rule:nonzero;fill:rgb(6.27451%,16.078431%,55.686275%);fill-opacity:1;" d="M 5.980469 9.542969 L 5.980469 9.871094 C 6.035156 9.804688 6.097656 9.773438 6.171875 9.773438 C 6.210938 9.773438 6.246094 9.78125 6.277344 9.796875 C 6.308594 9.808594 6.332031 9.828125 6.347656 9.851562 C 6.363281 9.875 6.371094 9.898438 6.378906 9.925781 C 6.382812 9.953125 6.386719 9.996094 6.386719 10.054688 L 6.386719 10.429688 L 6.21875 10.429688 L 6.21875 10.089844 C 6.21875 10.023438 6.21875 9.980469 6.210938 9.960938 C 6.203125 9.945312 6.195312 9.929688 6.175781 9.917969 C 6.160156 9.910156 6.140625 9.902344 6.117188 9.902344 C 6.089844 9.902344 6.066406 9.910156 6.042969 9.921875 C 6.023438 9.9375 6.003906 9.957031 5.996094 9.984375 C 5.984375 10.011719 5.980469 10.054688 5.980469 10.109375 L 5.980469 10.429688 L 5.8125 10.429688 L 5.8125 9.542969 Z M 5.980469 9.542969 "/>
<path style=" stroke:none;fill-rule:nonzero;fill:rgb(6.27451%,16.078431%,55.686275%);fill-opacity:1;" d="M 6.925781 10.226562 L 7.09375 10.253906 C 7.070312 10.316406 7.039062 10.363281 6.992188 10.394531 C 6.945312 10.425781 6.890625 10.441406 6.820312 10.441406 C 6.710938 10.441406 6.628906 10.40625 6.578125 10.332031 C 6.535156 10.277344 6.515625 10.203125 6.515625 10.113281 C 6.515625 10.007812 6.542969 9.925781 6.597656 9.863281 C 6.652344 9.804688 6.71875 9.773438 6.804688 9.773438 C 6.898438 9.773438 6.96875 9.804688 7.023438 9.867188 C 7.078125 9.929688 7.105469 10.027344 7.101562 10.15625 L 6.683594 10.15625 C 6.6875 10.207031 6.699219 10.246094 6.726562 10.273438 C 6.75 10.300781 6.785156 10.316406 6.820312 10.316406 C 6.847656 10.316406 6.871094 10.308594 6.886719 10.292969 C 6.90625 10.28125 6.917969 10.257812 6.925781 10.226562 M 6.9375 10.054688 C 6.9375 10.003906 6.921875 9.96875 6.898438 9.941406 C 6.875 9.917969 6.847656 9.902344 6.8125 9.902344 C 6.777344 9.902344 6.746094 9.917969 6.722656 9.945312 C 6.699219 9.96875 6.6875 10.007812 6.6875 10.054688 Z M 6.9375 10.054688 "/>
<path style=" stroke:none;fill-rule:nonzero;fill:rgb(6.27451%,16.078431%,55.686275%);fill-opacity:1;" d="M 7.40625 10.429688 L 7.238281 10.429688 L 7.238281 9.789062 L 7.394531 9.789062 L 7.394531 9.878906 C 7.417969 9.835938 7.445312 9.808594 7.464844 9.792969 C 7.484375 9.78125 7.507812 9.773438 7.535156 9.773438 C 7.574219 9.773438 7.609375 9.785156 7.644531 9.804688 L 7.59375 9.953125 C 7.566406 9.933594 7.539062 9.925781 7.515625 9.925781 C 7.492188 9.925781 7.472656 9.933594 7.457031 9.945312 C 7.441406 9.957031 7.429688 9.980469 7.417969 10.015625 C 7.410156 10.050781 7.40625 10.121094 7.40625 10.230469 Z M 7.40625 10.429688 "/>
<path style=" stroke:none;fill-rule:nonzero;fill:rgb(6.27451%,16.078431%,55.686275%);fill-opacity:1;" d="M 8.074219 10.429688 L 8.074219 9.542969 L 8.714844 9.542969 L 8.714844 9.695312 L 8.246094 9.695312 L 8.246094 9.890625 L 8.683594 9.890625 L 8.683594 10.039062 L 8.246094 10.039062 L 8.246094 10.28125 L 8.734375 10.28125 L 8.734375 10.429688 Z M 8.074219 10.429688 "/>
<path style=" stroke:none;fill-rule:nonzero;fill:rgb(6.27451%,16.078431%,55.686275%);fill-opacity:1;" d="M 9.300781 10.429688 L 9.300781 10.332031 C 9.277344 10.367188 9.25 10.394531 9.210938 10.414062 C 9.175781 10.433594 9.136719 10.441406 9.09375 10.441406 C 9.050781 10.441406 9.011719 10.433594 8.980469 10.414062 C 8.945312 10.394531 8.921875 10.371094 8.90625 10.335938 C 8.890625 10.300781 8.882812 10.253906 8.882812 10.195312 L 8.882812 9.789062 L 9.050781 9.789062 L 9.050781 10.082031 C 9.050781 10.171875 9.054688 10.226562 9.058594 10.25 C 9.066406 10.269531 9.078125 10.285156 9.09375 10.296875 C 9.109375 10.308594 9.128906 10.3125 9.15625 10.3125 C 9.183594 10.3125 9.207031 10.304688 9.230469 10.289062 C 9.253906 10.273438 9.269531 10.253906 9.277344 10.230469 C 9.285156 10.207031 9.289062 10.148438 9.289062 10.058594 L 9.289062 9.789062 L 9.457031 9.789062 L 9.457031 10.429688 Z M 9.300781 10.429688 "/>
<path style=" stroke:none;fill-rule:nonzero;fill:rgb(6.27451%,16.078431%,55.686275%);fill-opacity:1;" d="M 9.796875 10.429688 L 9.628906 10.429688 L 9.628906 9.789062 L 9.785156 9.789062 L 9.785156 9.878906 C 9.8125 9.835938 9.835938 9.808594 9.855469 9.792969 C 9.875 9.78125 9.902344 9.773438 9.925781 9.773438 C 9.964844 9.773438 10 9.785156 10.035156 9.804688 L 9.984375 9.953125 C 9.957031 9.933594 9.929688 9.925781 9.90625 9.925781 C 9.882812 9.925781 9.863281 9.933594 9.847656 9.945312 C 9.832031 9.957031 9.820312 9.980469 9.808594 10.015625 C 9.800781 10.050781 9.796875 10.121094 9.796875 10.230469 Z M 9.796875 10.429688 "/>
<path style=" stroke:none;fill-rule:nonzero;fill:rgb(6.27451%,16.078431%,55.686275%);fill-opacity:1;" d="M 10.078125 10.097656 C 10.078125 10.042969 10.09375 9.988281 10.121094 9.9375 C 10.148438 9.882812 10.183594 9.84375 10.234375 9.816406 C 10.285156 9.789062 10.339844 9.773438 10.402344 9.773438 C 10.496094 9.773438 10.574219 9.804688 10.636719 9.867188 C 10.695312 9.929688 10.726562 10.011719 10.726562 10.105469 C 10.726562 10.203125 10.695312 10.285156 10.636719 10.347656 C 10.574219 10.410156 10.496094 10.441406 10.402344 10.441406 C 10.347656 10.441406 10.289062 10.429688 10.238281 10.402344 C 10.1875 10.375 10.148438 10.339844 10.121094 10.285156 C 10.09375 10.234375 10.078125 10.171875 10.078125 10.097656 M 10.25 10.109375 C 10.25 10.171875 10.265625 10.21875 10.292969 10.253906 C 10.324219 10.289062 10.359375 10.304688 10.402344 10.304688 C 10.445312 10.304688 10.484375 10.289062 10.511719 10.253906 C 10.542969 10.21875 10.554688 10.171875 10.554688 10.105469 C 10.554688 10.042969 10.542969 9.996094 10.511719 9.960938 C 10.484375 9.929688 10.445312 9.910156 10.402344 9.910156 C 10.359375 9.910156 10.324219 9.929688 10.292969 9.960938 C 10.265625 9.996094 10.25 10.046875 10.25 10.109375 "/>
<path style=" stroke:none;fill-rule:nonzero;fill:rgb(6.27451%,16.078431%,55.686275%);fill-opacity:1;" d="M 10.847656 10.023438 L 11.171875 10.023438 L 11.171875 10.191406 L 10.847656 10.191406 Z M 10.847656 10.023438 "/>
<path style=" stroke:none;fill-rule:nonzero;fill:rgb(6.27451%,16.078431%,55.686275%);fill-opacity:1;" d="M 11.203125 10.429688 L 11.203125 10.269531 L 11.660156 9.695312 L 11.253906 9.695312 L 11.253906 9.542969 L 11.890625 9.542969 L 11.890625 9.683594 L 11.414062 10.28125 L 11.910156 10.28125 L 11.910156 10.429688 Z M 11.203125 10.429688 "/>
<path style=" stroke:none;fill-rule:nonzero;fill:rgb(6.27451%,16.078431%,55.686275%);fill-opacity:1;" d="M 12.152344 9.984375 L 12 9.957031 C 12.015625 9.894531 12.046875 9.847656 12.085938 9.816406 C 12.128906 9.789062 12.191406 9.773438 12.273438 9.773438 C 12.347656 9.773438 12.402344 9.78125 12.4375 9.800781 C 12.472656 9.820312 12.5 9.839844 12.515625 9.867188 C 12.527344 9.894531 12.535156 9.945312 12.535156 10.019531 L 12.535156 10.21875 C 12.535156 10.273438 12.539062 10.316406 12.542969 10.34375 C 12.546875 10.371094 12.558594 10.398438 12.574219 10.429688 L 12.410156 10.429688 C 12.402344 10.417969 12.398438 10.402344 12.390625 10.378906 L 12.386719 10.359375 C 12.359375 10.386719 12.328125 10.40625 12.296875 10.421875 C 12.261719 10.4375 12.226562 10.441406 12.191406 10.441406 C 12.125 10.441406 12.074219 10.425781 12.039062 10.390625 C 12 10.355469 11.984375 10.308594 11.984375 10.253906 C 11.984375 10.21875 11.992188 10.183594 12.007812 10.15625 C 12.023438 10.128906 12.046875 10.105469 12.078125 10.09375 C 12.109375 10.078125 12.152344 10.0625 12.210938 10.050781 C 12.289062 10.039062 12.34375 10.023438 12.375 10.011719 L 12.375 9.992188 C 12.375 9.960938 12.367188 9.9375 12.347656 9.925781 C 12.332031 9.910156 12.304688 9.902344 12.261719 9.902344 C 12.230469 9.902344 12.207031 9.910156 12.191406 9.921875 C 12.175781 9.933594 12.160156 9.953125 12.152344 9.984375 M 12.375 10.121094 C 12.351562 10.128906 12.316406 10.136719 12.273438 10.148438 C 12.226562 10.15625 12.195312 10.167969 12.179688 10.175781 C 12.160156 10.191406 12.148438 10.210938 12.148438 10.238281 C 12.148438 10.261719 12.15625 10.28125 12.175781 10.296875 C 12.191406 10.316406 12.214844 10.324219 12.242188 10.324219 C 12.269531 10.324219 12.300781 10.3125 12.328125 10.292969 C 12.347656 10.277344 12.359375 10.257812 12.367188 10.238281 C 12.371094 10.222656 12.375 10.195312 12.375 10.15625 Z M 12.375 10.121094 "/>
<path style=" stroke:none;fill-rule:nonzero;fill:rgb(6.27451%,16.078431%,55.686275%);fill-opacity:1;" d="M 12.875 9.542969 L 12.875 9.871094 C 12.929688 9.804688 12.992188 9.773438 13.066406 9.773438 C 13.105469 9.773438 13.140625 9.78125 13.171875 9.796875 C 13.203125 9.808594 13.222656 9.828125 13.238281 9.851562 C 13.253906 9.875 13.265625 9.898438 13.273438 9.925781 C 13.277344 9.953125 13.28125 9.996094 13.28125 10.054688 L 13.28125 10.429688 L 13.113281 10.429688 L 13.113281 10.089844 C 13.113281 10.023438 13.109375 9.980469 13.105469 9.960938 C 13.097656 9.945312 13.085938 9.929688 13.070312 9.917969 C 13.054688 9.910156 13.035156 9.902344 13.011719 9.902344 C 12.984375 9.902344 12.960938 9.910156 12.9375 9.921875 C 12.914062 9.9375 12.898438 9.957031 12.890625 9.984375 C 12.878906 10.011719 12.875 10.054688 12.875 10.109375 L 12.875 10.429688 L 12.707031 10.429688 L 12.707031 9.542969 Z M 12.875 9.542969 "/>
<path style=" stroke:none;fill-rule:nonzero;fill:rgb(6.27451%,16.078431%,55.686275%);fill-opacity:1;" d="M 13.457031 9.542969 L 13.625 9.542969 L 13.625 10.429688 L 13.457031 10.429688 Z M 13.457031 9.542969 "/>
<path style=" stroke:none;fill-rule:nonzero;fill:rgb(6.27451%,16.078431%,55.686275%);fill-opacity:1;" d="M 14.214844 10.429688 L 14.214844 10.332031 C 14.195312 10.367188 14.164062 10.394531 14.125 10.414062 C 14.089844 10.433594 14.050781 10.441406 14.007812 10.441406 C 13.964844 10.441406 13.929688 10.433594 13.894531 10.414062 C 13.859375 10.394531 13.835938 10.371094 13.820312 10.335938 C 13.808594 10.300781 13.800781 10.253906 13.800781 10.195312 L 13.800781 9.789062 L 13.964844 9.789062 L 13.964844 10.082031 C 13.964844 10.171875 13.96875 10.226562 13.976562 10.25 C 13.980469 10.269531 13.992188 10.285156 14.007812 10.296875 C 14.023438 10.308594 14.046875 10.3125 14.070312 10.3125 C 14.097656 10.3125 14.125 10.304688 14.144531 10.289062 C 14.167969 10.273438 14.183594 10.253906 14.191406 10.230469 C 14.199219 10.207031 14.203125 10.148438 14.203125 10.058594 L 14.203125 9.789062 L 14.371094 9.789062 L 14.371094 10.429688 Z M 14.214844 10.429688 "/>
<path style=" stroke:none;fill-rule:nonzero;fill:rgb(6.27451%,16.078431%,55.686275%);fill-opacity:1;" d="M 15.125 10.429688 L 14.957031 10.429688 L 14.957031 10.101562 C 14.957031 10.03125 14.953125 9.988281 14.945312 9.96875 C 14.9375 9.949219 14.925781 9.933594 14.910156 9.921875 C 14.894531 9.910156 14.875 9.902344 14.855469 9.902344 C 14.824219 9.902344 14.800781 9.910156 14.777344 9.925781 C 14.753906 9.945312 14.738281 9.964844 14.730469 9.992188 C 14.722656 10.019531 14.714844 10.066406 14.714844 10.136719 L 14.714844 10.429688 L 14.550781 10.429688 L 14.550781 9.789062 L 14.703125 9.789062 L 14.703125 9.882812 C 14.757812 9.808594 14.828125 9.773438 14.910156 9.773438 C 14.949219 9.773438 14.980469 9.78125 15.011719 9.792969 C 15.042969 9.808594 15.066406 9.824219 15.082031 9.84375 C 15.097656 9.867188 15.109375 9.890625 15.113281 9.917969 C 15.121094 9.941406 15.125 9.980469 15.125 10.03125 Z M 15.125 10.429688 "/>
<path style=" stroke:none;fill-rule:nonzero;fill:rgb(6.27451%,16.078431%,55.686275%);fill-opacity:1;" d="M 15.285156 10.472656 L 15.476562 10.496094 C 15.476562 10.515625 15.484375 10.53125 15.496094 10.539062 C 15.511719 10.554688 15.539062 10.558594 15.570312 10.558594 C 15.613281 10.558594 15.648438 10.550781 15.667969 10.539062 C 15.683594 10.53125 15.695312 10.515625 15.703125 10.496094 C 15.707031 10.480469 15.710938 10.457031 15.710938 10.417969 L 15.710938 10.324219 C 15.660156 10.394531 15.597656 10.429688 15.523438 10.429688 C 15.4375 10.429688 15.371094 10.390625 15.320312 10.320312 C 15.28125 10.261719 15.261719 10.191406 15.261719 10.105469 C 15.261719 9.996094 15.289062 9.914062 15.339844 9.859375 C 15.390625 9.800781 15.453125 9.773438 15.527344 9.773438 C 15.605469 9.773438 15.671875 9.808594 15.71875 9.878906 L 15.71875 9.789062 L 15.875 9.789062 L 15.875 10.363281 C 15.875 10.4375 15.871094 10.496094 15.859375 10.53125 C 15.84375 10.570312 15.828125 10.597656 15.804688 10.621094 C 15.785156 10.640625 15.753906 10.660156 15.71875 10.671875 C 15.679688 10.683594 15.632812 10.6875 15.578125 10.6875 C 15.472656 10.6875 15.394531 10.671875 15.351562 10.632812 C 15.304688 10.597656 15.285156 10.546875 15.285156 10.492188 Z M 15.433594 10.09375 C 15.433594 10.164062 15.445312 10.214844 15.472656 10.246094 C 15.5 10.277344 15.53125 10.292969 15.566406 10.292969 C 15.609375 10.292969 15.644531 10.277344 15.671875 10.242188 C 15.699219 10.210938 15.710938 10.164062 15.710938 10.097656 C 15.710938 10.03125 15.699219 9.984375 15.671875 9.953125 C 15.644531 9.917969 15.613281 9.902344 15.570312 9.902344 C 15.53125 9.902344 15.5 9.917969 15.472656 9.949219 C 15.445312 9.980469 15.433594 10.03125 15.433594 10.09375 "/>
<path style=" stroke:none;fill-rule:nonzero;fill:rgb(6.27451%,16.078431%,55.686275%);fill-opacity:1;" d="M 15.992188 10.246094 L 16.15625 10.21875 C 16.164062 10.253906 16.179688 10.277344 16.199219 10.296875 C 16.222656 10.3125 16.253906 10.320312 16.292969 10.320312 C 16.335938 10.320312 16.367188 10.3125 16.390625 10.296875 C 16.402344 10.285156 16.410156 10.269531 16.410156 10.25 L 16.398438 10.21875 C 16.390625 10.210938 16.371094 10.203125 16.34375 10.195312 C 16.210938 10.167969 16.125 10.140625 16.089844 10.113281 C 16.039062 10.078125 16.011719 10.03125 16.011719 9.96875 C 16.011719 9.914062 16.035156 9.867188 16.078125 9.832031 C 16.121094 9.792969 16.1875 9.773438 16.277344 9.773438 C 16.363281 9.773438 16.429688 9.789062 16.46875 9.816406 C 16.511719 9.84375 16.539062 9.886719 16.554688 9.941406 L 16.398438 9.972656 C 16.394531 9.949219 16.378906 9.929688 16.359375 9.914062 C 16.34375 9.902344 16.316406 9.894531 16.28125 9.894531 C 16.238281 9.894531 16.207031 9.902344 16.1875 9.914062 L 16.167969 9.949219 L 16.183594 9.980469 C 16.199219 9.992188 16.25 10.007812 16.339844 10.027344 C 16.429688 10.046875 16.492188 10.074219 16.523438 10.101562 C 16.558594 10.132812 16.578125 10.175781 16.578125 10.226562 C 16.578125 10.289062 16.554688 10.335938 16.503906 10.378906 C 16.457031 10.421875 16.386719 10.441406 16.292969 10.441406 C 16.207031 10.441406 16.136719 10.425781 16.089844 10.390625 C 16.039062 10.355469 16.003906 10.308594 15.992188 10.246094 "/>
<path style=" stroke:none;fill-rule:nonzero;fill:rgb(6.27451%,16.078431%,55.686275%);fill-opacity:1;" d="M 16.902344 10.429688 L 16.652344 9.789062 L 16.824219 9.789062 L 16.945312 10.113281 L 16.976562 10.222656 C 16.988281 10.195312 16.992188 10.179688 16.996094 10.167969 C 17 10.152344 17.007812 10.132812 17.011719 10.113281 L 17.132812 9.789062 L 17.304688 9.789062 L 17.054688 10.429688 Z M 16.902344 10.429688 "/>
<path style=" stroke:none;fill-rule:nonzero;fill:rgb(6.27451%,16.078431%,55.686275%);fill-opacity:1;" d="M 17.777344 10.226562 L 17.945312 10.253906 C 17.921875 10.316406 17.886719 10.363281 17.84375 10.394531 C 17.796875 10.425781 17.738281 10.441406 17.671875 10.441406 C 17.5625 10.441406 17.480469 10.40625 17.425781 10.332031 C 17.386719 10.277344 17.367188 10.203125 17.367188 10.113281 C 17.367188 10.007812 17.394531 9.925781 17.445312 9.863281 C 17.5 9.804688 17.570312 9.773438 17.652344 9.773438 C 17.746094 9.773438 17.820312 9.804688 17.875 9.867188 C 17.929688 9.929688 17.953125 10.027344 17.953125 10.15625 L 17.535156 10.15625 C 17.535156 10.207031 17.550781 10.246094 17.574219 10.273438 C 17.601562 10.300781 17.632812 10.316406 17.671875 10.316406 C 17.699219 10.316406 17.71875 10.308594 17.738281 10.292969 C 17.753906 10.28125 17.769531 10.257812 17.777344 10.226562 M 17.789062 10.054688 C 17.785156 10.003906 17.773438 9.96875 17.75 9.941406 C 17.726562 9.917969 17.699219 9.902344 17.664062 9.902344 C 17.628906 9.902344 17.597656 9.917969 17.574219 9.945312 C 17.550781 9.96875 17.539062 10.007812 17.539062 10.054688 Z M 17.789062 10.054688 "/>
<path style=" stroke:none;fill-rule:nonzero;fill:rgb(6.27451%,16.078431%,55.686275%);fill-opacity:1;" d="M 18.253906 10.429688 L 18.089844 10.429688 L 18.089844 9.789062 L 18.242188 9.789062 L 18.242188 9.878906 C 18.269531 9.835938 18.292969 9.808594 18.316406 9.792969 C 18.335938 9.78125 18.359375 9.773438 18.386719 9.773438 C 18.425781 9.773438 18.460938 9.785156 18.496094 9.804688 L 18.445312 9.953125 C 18.417969 9.933594 18.390625 9.925781 18.367188 9.925781 C 18.34375 9.925781 18.324219 9.933594 18.308594 9.945312 C 18.292969 9.957031 18.277344 9.980469 18.269531 10.015625 C 18.261719 10.050781 18.253906 10.121094 18.253906 10.230469 Z M 18.253906 10.429688 "/>
<path style=" stroke:none;fill-rule:nonzero;fill:rgb(6.27451%,16.078431%,55.686275%);fill-opacity:1;" d="M 18.570312 10.429688 L 18.570312 9.542969 L 18.738281 9.542969 L 18.738281 10.015625 L 18.929688 9.789062 L 19.136719 9.789062 L 18.921875 10.023438 L 19.152344 10.429688 L 18.972656 10.429688 L 18.8125 10.140625 L 18.738281 10.222656 L 18.738281 10.429688 Z M 18.570312 10.429688 "/>
<path style=" stroke:none;fill-rule:nonzero;fill:rgb(6.27451%,16.078431%,55.686275%);fill-opacity:1;" d="M 19.621094 10.226562 L 19.789062 10.253906 C 19.765625 10.316406 19.734375 10.363281 19.6875 10.394531 C 19.640625 10.425781 19.585938 10.441406 19.515625 10.441406 C 19.40625 10.441406 19.324219 10.40625 19.273438 10.332031 C 19.230469 10.277344 19.210938 10.203125 19.210938 10.113281 C 19.210938 10.007812 19.238281 9.925781 19.292969 9.863281 C 19.347656 9.804688 19.414062 9.773438 19.5 9.773438 C 19.59375 9.773438 19.664062 9.804688 19.71875 9.867188 C 19.773438 9.929688 19.800781 10.027344 19.796875 10.15625 L 19.378906 10.15625 C 19.382812 10.207031 19.394531 10.246094 19.421875 10.273438 C 19.445312 10.300781 19.480469 10.316406 19.515625 10.316406 C 19.542969 10.316406 19.566406 10.308594 19.582031 10.292969 C 19.601562 10.28125 19.613281 10.257812 19.621094 10.226562 M 19.632812 10.054688 C 19.632812 10.003906 19.617188 9.96875 19.59375 9.941406 C 19.570312 9.917969 19.542969 9.902344 19.507812 9.902344 C 19.472656 9.902344 19.441406 9.917969 19.417969 9.945312 C 19.394531 9.96875 19.382812 10.007812 19.382812 10.054688 Z M 19.632812 10.054688 "/>
<path style=" stroke:none;fill-rule:nonzero;fill:rgb(6.27451%,16.078431%,55.686275%);fill-opacity:1;" d="M 20.105469 9.542969 L 20.105469 9.871094 C 20.160156 9.804688 20.226562 9.773438 20.300781 9.773438 C 20.335938 9.773438 20.371094 9.78125 20.402344 9.796875 C 20.433594 9.808594 20.457031 9.828125 20.472656 9.851562 C 20.488281 9.875 20.5 9.898438 20.503906 9.925781 C 20.511719 9.953125 20.511719 9.996094 20.511719 10.054688 L 20.511719 10.429688 L 20.347656 10.429688 L 20.347656 10.089844 C 20.347656 10.023438 20.34375 9.980469 20.335938 9.960938 C 20.332031 9.945312 20.320312 9.929688 20.304688 9.917969 C 20.289062 9.910156 20.269531 9.902344 20.242188 9.902344 C 20.214844 9.902344 20.191406 9.910156 20.167969 9.921875 C 20.148438 9.9375 20.132812 9.957031 20.121094 9.984375 C 20.113281 10.011719 20.105469 10.054688 20.105469 10.109375 L 20.105469 10.429688 L 19.941406 10.429688 L 19.941406 9.542969 Z M 20.105469 9.542969 "/>
<path style=" stroke:none;fill-rule:nonzero;fill:rgb(6.27451%,16.078431%,55.686275%);fill-opacity:1;" d="M 20.847656 10.429688 L 20.683594 10.429688 L 20.683594 9.789062 L 20.835938 9.789062 L 20.835938 9.878906 C 20.863281 9.835938 20.886719 9.808594 20.910156 9.792969 C 20.929688 9.78125 20.953125 9.773438 20.980469 9.773438 C 21.019531 9.773438 21.054688 9.785156 21.089844 9.804688 L 21.039062 9.953125 C 21.011719 9.933594 20.984375 9.925781 20.960938 9.925781 C 20.9375 9.925781 20.917969 9.933594 20.902344 9.945312 C 20.886719 9.957031 20.871094 9.980469 20.863281 10.015625 C 20.855469 10.050781 20.847656 10.121094 20.847656 10.230469 Z M 20.847656 10.429688 "/>
<path style=" stroke:none;fill-rule:nonzero;fill:rgb(6.27451%,16.078431%,55.686275%);fill-opacity:1;" d="M 21.113281 10.246094 L 21.277344 10.21875 C 21.285156 10.253906 21.300781 10.277344 21.320312 10.296875 C 21.34375 10.3125 21.375 10.320312 21.414062 10.320312 C 21.457031 10.320312 21.488281 10.3125 21.511719 10.296875 C 21.523438 10.285156 21.53125 10.269531 21.53125 10.25 L 21.519531 10.21875 C 21.511719 10.210938 21.492188 10.203125 21.464844 10.195312 C 21.332031 10.167969 21.246094 10.140625 21.210938 10.113281 C 21.160156 10.078125 21.132812 10.03125 21.132812 9.96875 C 21.132812 9.914062 21.15625 9.867188 21.199219 9.832031 C 21.242188 9.792969 21.308594 9.773438 21.398438 9.773438 C 21.484375 9.773438 21.550781 9.789062 21.589844 9.816406 C 21.632812 9.84375 21.660156 9.886719 21.675781 9.941406 L 21.519531 9.972656 C 21.515625 9.949219 21.5 9.929688 21.480469 9.914062 C 21.464844 9.902344 21.4375 9.894531 21.402344 9.894531 C 21.359375 9.894531 21.328125 9.902344 21.308594 9.914062 L 21.289062 9.949219 L 21.304688 9.980469 C 21.320312 9.992188 21.371094 10.007812 21.460938 10.027344 C 21.550781 10.046875 21.613281 10.074219 21.648438 10.101562 C 21.679688 10.132812 21.699219 10.175781 21.699219 10.226562 C 21.699219 10.289062 21.675781 10.335938 21.625 10.378906 C 21.578125 10.421875 21.507812 10.441406 21.414062 10.441406 C 21.328125 10.441406 21.257812 10.425781 21.210938 10.390625 C 21.160156 10.355469 21.128906 10.308594 21.113281 10.246094 "/>
<path style=" stroke:none;fill-rule:nonzero;fill:rgb(6.27451%,16.078431%,55.686275%);fill-opacity:1;" d="M 22.011719 10.429688 L 21.84375 10.429688 L 21.84375 9.789062 L 22 9.789062 L 22 9.878906 C 22.027344 9.835938 22.050781 9.808594 22.070312 9.792969 C 22.09375 9.78125 22.117188 9.773438 22.144531 9.773438 C 22.179688 9.773438 22.21875 9.785156 22.253906 9.804688 L 22.203125 9.953125 C 22.171875 9.933594 22.148438 9.925781 22.125 9.925781 C 22.101562 9.925781 22.082031 9.933594 22.0625 9.945312 C 22.046875 9.957031 22.035156 9.980469 22.027344 10.015625 C 22.015625 10.050781 22.011719 10.121094 22.011719 10.230469 Z M 22.011719 10.429688 "/>
<path style=" stroke:none;fill-rule:nonzero;fill:rgb(6.27451%,16.078431%,55.686275%);fill-opacity:1;" d="M 22.457031 9.984375 L 22.304688 9.957031 C 22.324219 9.894531 22.351562 9.847656 22.394531 9.816406 C 22.433594 9.789062 22.496094 9.773438 22.578125 9.773438 C 22.652344 9.773438 22.707031 9.78125 22.742188 9.800781 C 22.78125 9.820312 22.804688 9.839844 22.820312 9.867188 C 22.835938 9.894531 22.84375 9.945312 22.84375 10.019531 L 22.839844 10.21875 C 22.839844 10.273438 22.84375 10.316406 22.847656 10.34375 C 22.855469 10.371094 22.863281 10.398438 22.878906 10.429688 L 22.714844 10.429688 C 22.710938 10.417969 22.703125 10.402344 22.699219 10.378906 L 22.691406 10.359375 C 22.664062 10.386719 22.632812 10.40625 22.601562 10.421875 C 22.570312 10.4375 22.535156 10.441406 22.496094 10.441406 C 22.433594 10.441406 22.382812 10.425781 22.34375 10.390625 C 22.308594 10.355469 22.289062 10.308594 22.289062 10.253906 C 22.289062 10.21875 22.296875 10.183594 22.316406 10.15625 C 22.332031 10.128906 22.355469 10.105469 22.386719 10.09375 C 22.417969 10.078125 22.460938 10.0625 22.519531 10.050781 C 22.597656 10.039062 22.648438 10.023438 22.679688 10.011719 L 22.679688 9.992188 C 22.679688 9.960938 22.671875 9.9375 22.65625 9.925781 C 22.640625 9.910156 22.609375 9.902344 22.566406 9.902344 C 22.535156 9.902344 22.515625 9.910156 22.496094 9.921875 C 22.480469 9.933594 22.46875 9.953125 22.457031 9.984375 M 22.679688 10.121094 C 22.660156 10.128906 22.625 10.136719 22.578125 10.148438 C 22.53125 10.15625 22.503906 10.167969 22.488281 10.175781 C 22.464844 10.191406 22.457031 10.210938 22.457031 10.238281 C 22.457031 10.261719 22.464844 10.28125 22.480469 10.296875 C 22.5 10.316406 22.519531 10.324219 22.546875 10.324219 C 22.578125 10.324219 22.605469 10.3125 22.632812 10.292969 C 22.652344 10.277344 22.667969 10.257812 22.671875 10.238281 C 22.675781 10.222656 22.679688 10.195312 22.679688 10.15625 Z M 22.679688 10.121094 "/>
<path style=" stroke:none;fill-rule:nonzero;fill:rgb(6.27451%,16.078431%,55.686275%);fill-opacity:1;" d="M 23.429688 10.429688 L 23.429688 10.332031 C 23.40625 10.367188 23.375 10.394531 23.339844 10.414062 C 23.300781 10.433594 23.261719 10.441406 23.21875 10.441406 C 23.179688 10.441406 23.140625 10.433594 23.105469 10.414062 C 23.074219 10.394531 23.050781 10.371094 23.035156 10.335938 C 23.019531 10.300781 23.011719 10.253906 23.011719 10.195312 L 23.011719 9.789062 L 23.179688 9.789062 L 23.179688 10.082031 C 23.179688 10.171875 23.179688 10.226562 23.1875 10.25 C 23.191406 10.269531 23.203125 10.285156 23.21875 10.296875 C 23.238281 10.308594 23.257812 10.3125 23.28125 10.3125 C 23.3125 10.3125 23.335938 10.304688 23.359375 10.289062 C 23.378906 10.273438 23.394531 10.253906 23.40625 10.230469 C 23.414062 10.207031 23.417969 10.148438 23.417969 10.058594 L 23.417969 9.789062 L 23.582031 9.789062 L 23.582031 10.429688 Z M 23.429688 10.429688 "/>
<path style=" stroke:none;fill-rule:nonzero;fill:rgb(6.27451%,16.078431%,55.686275%);fill-opacity:1;" d="M 23.75 9.789062 L 23.90625 9.789062 L 23.90625 9.875 C 23.960938 9.808594 24.023438 9.773438 24.101562 9.773438 C 24.140625 9.773438 24.175781 9.78125 24.207031 9.800781 C 24.234375 9.816406 24.257812 9.839844 24.277344 9.875 C 24.304688 9.839844 24.335938 9.816406 24.367188 9.800781 C 24.398438 9.78125 24.433594 9.773438 24.46875 9.773438 C 24.515625 9.773438 24.554688 9.785156 24.585938 9.800781 C 24.617188 9.820312 24.644531 9.847656 24.660156 9.886719 C 24.671875 9.914062 24.675781 9.957031 24.675781 10.019531 L 24.675781 10.429688 L 24.507812 10.429688 L 24.507812 10.0625 C 24.507812 10 24.503906 9.957031 24.492188 9.941406 C 24.476562 9.914062 24.453125 9.902344 24.421875 9.902344 C 24.398438 9.902344 24.375 9.910156 24.355469 9.925781 C 24.335938 9.941406 24.320312 9.960938 24.3125 9.988281 C 24.300781 10.015625 24.296875 10.0625 24.296875 10.121094 L 24.296875 10.429688 L 24.132812 10.429688 L 24.132812 10.078125 C 24.132812 10.015625 24.128906 9.976562 24.121094 9.957031 C 24.117188 9.9375 24.109375 9.925781 24.09375 9.917969 C 24.082031 9.90625 24.066406 9.902344 24.042969 9.902344 C 24.019531 9.902344 23.996094 9.910156 23.976562 9.925781 C 23.953125 9.9375 23.941406 9.960938 23.929688 9.984375 C 23.921875 10.011719 23.917969 10.054688 23.917969 10.117188 L 23.917969 10.429688 L 23.75 10.429688 Z M 23.75 9.789062 "/>
<path style=" stroke:none;fill-rule:nonzero;fill:rgb(6.27451%,16.078431%,55.686275%);fill-opacity:1;" d="M 0.324219 8.449219 L 0.574219 8.421875 C 0.589844 8.507812 0.617188 8.570312 0.664062 8.613281 C 0.710938 8.652344 0.773438 8.671875 0.851562 8.671875 C 0.933594 8.671875 0.996094 8.65625 1.039062 8.617188 C 1.078125 8.582031 1.101562 8.542969 1.101562 8.492188 C 1.101562 8.464844 1.09375 8.4375 1.074219 8.414062 C 1.058594 8.394531 1.027344 8.375 0.980469 8.359375 C 0.953125 8.347656 0.882812 8.328125 0.777344 8.300781 C 0.636719 8.269531 0.542969 8.226562 0.488281 8.175781 C 0.410156 8.101562 0.371094 8.015625 0.371094 7.914062 C 0.371094 7.847656 0.386719 7.785156 0.425781 7.726562 C 0.460938 7.671875 0.515625 7.625 0.582031 7.597656 C 0.652344 7.566406 0.734375 7.550781 0.832031 7.550781 C 0.992188 7.550781 1.113281 7.585938 1.195312 7.660156 C 1.273438 7.730469 1.316406 7.824219 1.320312 7.945312 L 1.0625 7.957031 C 1.054688 7.890625 1.03125 7.839844 0.992188 7.8125 C 0.957031 7.78125 0.902344 7.769531 0.832031 7.769531 C 0.757812 7.769531 0.699219 7.785156 0.65625 7.816406 C 0.628906 7.835938 0.613281 7.863281 0.613281 7.894531 C 0.613281 7.925781 0.628906 7.953125 0.652344 7.972656 C 0.683594 8.003906 0.765625 8.03125 0.890625 8.0625 C 1.015625 8.089844 1.105469 8.121094 1.167969 8.15625 C 1.226562 8.1875 1.273438 8.230469 1.308594 8.285156 C 1.339844 8.34375 1.359375 8.410156 1.359375 8.492188 C 1.359375 8.566406 1.335938 8.636719 1.296875 8.703125 C 1.257812 8.765625 1.199219 8.816406 1.125 8.847656 C 1.050781 8.878906 0.957031 8.894531 0.847656 8.894531 C 0.6875 8.894531 0.5625 8.855469 0.476562 8.78125 C 0.390625 8.703125 0.339844 8.59375 0.324219 8.449219 "/>
<path style=" stroke:none;fill-rule:nonzero;fill:rgb(6.27451%,16.078431%,55.686275%);fill-opacity:1;" d="M 1.625 7.574219 L 1.871094 7.574219 L 1.871094 7.804688 L 1.625 7.804688 Z M 1.625 7.929688 L 1.871094 7.929688 L 1.871094 8.871094 L 1.625 8.871094 Z M 1.625 7.929688 "/>
<path style=" stroke:none;fill-rule:nonzero;fill:rgb(6.27451%,16.078431%,55.686275%);fill-opacity:1;" d="M 3.011719 8.871094 L 2.765625 8.871094 L 2.765625 8.390625 C 2.765625 8.289062 2.761719 8.222656 2.75 8.195312 C 2.742188 8.164062 2.722656 8.140625 2.699219 8.125 C 2.675781 8.109375 2.648438 8.101562 2.617188 8.101562 C 2.574219 8.101562 2.535156 8.113281 2.503906 8.136719 C 2.46875 8.160156 2.445312 8.191406 2.433594 8.230469 C 2.421875 8.269531 2.414062 8.339844 2.414062 8.445312 L 2.414062 8.871094 L 2.171875 8.871094 L 2.171875 7.929688 L 2.398438 7.929688 L 2.398438 8.070312 C 2.476562 7.960938 2.578125 7.910156 2.699219 7.910156 C 2.753906 7.910156 2.804688 7.917969 2.847656 7.9375 C 2.894531 7.960938 2.925781 7.984375 2.949219 8.015625 C 2.972656 8.046875 2.988281 8.082031 2.996094 8.121094 C 3.007812 8.160156 3.011719 8.214844 3.011719 8.285156 Z M 3.011719 8.871094 "/>
<path style=" stroke:none;fill-rule:nonzero;fill:rgb(6.27451%,16.078431%,55.686275%);fill-opacity:1;" d="M 3.289062 8.933594 L 3.566406 8.96875 C 3.570312 9 3.582031 9.023438 3.601562 9.035156 C 3.621094 9.054688 3.660156 9.0625 3.710938 9.0625 C 3.773438 9.0625 3.820312 9.050781 3.851562 9.03125 C 3.875 9.019531 3.890625 9 3.902344 8.96875 C 3.910156 8.949219 3.910156 8.910156 3.910156 8.855469 L 3.910156 8.71875 C 3.839844 8.820312 3.746094 8.871094 3.636719 8.871094 C 3.511719 8.871094 3.414062 8.816406 3.34375 8.710938 C 3.285156 8.625 3.257812 8.519531 3.257812 8.394531 C 3.257812 8.238281 3.292969 8.117188 3.367188 8.035156 C 3.441406 7.953125 3.535156 7.910156 3.644531 7.910156 C 3.757812 7.910156 3.855469 7.960938 3.929688 8.0625 L 3.929688 7.929688 L 4.15625 7.929688 L 4.15625 8.773438 C 4.15625 8.886719 4.148438 8.96875 4.128906 9.023438 C 4.109375 9.078125 4.085938 9.121094 4.054688 9.152344 C 4.019531 9.183594 3.976562 9.207031 3.921875 9.226562 C 3.871094 9.242188 3.800781 9.25 3.71875 9.25 C 3.5625 9.25 3.453125 9.222656 3.386719 9.171875 C 3.320312 9.117188 3.289062 9.046875 3.289062 8.960938 Z M 3.507812 8.382812 C 3.507812 8.480469 3.527344 8.554688 3.5625 8.601562 C 3.601562 8.648438 3.648438 8.667969 3.703125 8.667969 C 3.761719 8.667969 3.8125 8.644531 3.855469 8.597656 C 3.894531 8.550781 3.917969 8.480469 3.917969 8.386719 C 3.917969 8.289062 3.898438 8.21875 3.859375 8.171875 C 3.816406 8.125 3.769531 8.101562 3.707031 8.101562 C 3.648438 8.101562 3.601562 8.125 3.5625 8.167969 C 3.527344 8.214844 3.507812 8.285156 3.507812 8.382812 "/>
<path style=" stroke:none;fill-rule:nonzero;fill:rgb(6.27451%,16.078431%,55.686275%);fill-opacity:1;" d="M 4.449219 7.574219 L 4.695312 7.574219 L 4.695312 8.871094 L 4.449219 8.871094 Z M 4.449219 7.574219 "/>
<path style=" stroke:none;fill-rule:nonzero;fill:rgb(6.27451%,16.078431%,55.686275%);fill-opacity:1;" d="M 5.53125 8.570312 L 5.773438 8.613281 C 5.742188 8.703125 5.695312 8.773438 5.625 8.820312 C 5.558594 8.867188 5.476562 8.890625 5.375 8.890625 C 5.214844 8.890625 5.09375 8.839844 5.019531 8.730469 C 4.957031 8.644531 4.925781 8.539062 4.925781 8.40625 C 4.925781 8.253906 4.964844 8.128906 5.046875 8.042969 C 5.125 7.953125 5.226562 7.910156 5.347656 7.910156 C 5.484375 7.910156 5.59375 7.957031 5.675781 8.046875 C 5.753906 8.140625 5.789062 8.28125 5.789062 8.472656 L 5.175781 8.472656 C 5.179688 8.546875 5.199219 8.605469 5.234375 8.644531 C 5.273438 8.683594 5.320312 8.707031 5.375 8.707031 C 5.414062 8.707031 5.445312 8.695312 5.472656 8.675781 C 5.5 8.652344 5.519531 8.617188 5.53125 8.570312 M 5.546875 8.320312 C 5.542969 8.25 5.527344 8.195312 5.492188 8.15625 C 5.457031 8.117188 5.414062 8.101562 5.363281 8.101562 C 5.3125 8.101562 5.265625 8.121094 5.230469 8.160156 C 5.199219 8.199219 5.179688 8.253906 5.179688 8.320312 Z M 5.546875 8.320312 "/>
<path style=" stroke:none;fill-rule:nonzero;fill:rgb(6.27451%,16.078431%,55.686275%);fill-opacity:1;" d="M 6.589844 8.871094 L 6.589844 7.574219 L 7.53125 7.574219 L 7.53125 7.792969 L 6.84375 7.792969 L 6.84375 8.082031 L 7.484375 8.082031 L 7.484375 8.300781 L 6.84375 8.300781 L 6.84375 8.652344 L 7.554688 8.652344 L 7.554688 8.871094 Z M 6.589844 8.871094 "/>
<path style=" stroke:none;fill-rule:nonzero;fill:rgb(6.27451%,16.078431%,55.686275%);fill-opacity:1;" d="M 8.433594 8.871094 L 8.433594 8.730469 C 8.398438 8.78125 8.355469 8.820312 8.300781 8.847656 C 8.246094 8.878906 8.1875 8.890625 8.125 8.890625 C 8.066406 8.890625 8.007812 8.878906 7.960938 8.851562 C 7.910156 8.824219 7.875 8.785156 7.851562 8.734375 C 7.832031 8.683594 7.820312 8.613281 7.820312 8.527344 L 7.820312 7.929688 L 8.0625 7.929688 L 8.0625 8.363281 C 8.0625 8.496094 8.070312 8.574219 8.078125 8.605469 C 8.085938 8.636719 8.101562 8.660156 8.125 8.675781 C 8.152344 8.695312 8.179688 8.703125 8.21875 8.703125 C 8.257812 8.703125 8.296875 8.691406 8.328125 8.667969 C 8.363281 8.644531 8.382812 8.613281 8.398438 8.582031 C 8.410156 8.546875 8.414062 8.460938 8.414062 8.328125 L 8.414062 7.929688 L 8.660156 7.929688 L 8.660156 8.871094 Z M 8.433594 8.871094 "/>
<path style=" stroke:none;fill-rule:nonzero;fill:rgb(6.27451%,16.078431%,55.686275%);fill-opacity:1;" d="M 9.199219 8.871094 L 8.953125 8.871094 L 8.953125 7.929688 L 9.179688 7.929688 L 9.179688 8.066406 C 9.21875 8 9.253906 7.960938 9.285156 7.941406 C 9.316406 7.917969 9.351562 7.910156 9.390625 7.910156 C 9.445312 7.910156 9.5 7.925781 9.550781 7.957031 L 9.476562 8.171875 C 9.433594 8.144531 9.398438 8.132812 9.359375 8.132812 C 9.328125 8.132812 9.296875 8.140625 9.273438 8.160156 C 9.25 8.179688 9.230469 8.214844 9.21875 8.265625 C 9.203125 8.316406 9.199219 8.421875 9.199219 8.582031 Z M 9.199219 8.871094 "/>
<path style=" stroke:none;fill-rule:nonzero;fill:rgb(6.27451%,16.078431%,55.686275%);fill-opacity:1;" d="M 9.652344 8.386719 C 9.652344 8.304688 9.671875 8.226562 9.714844 8.148438 C 9.753906 8.070312 9.808594 8.011719 9.882812 7.972656 C 9.957031 7.929688 10.039062 7.910156 10.128906 7.910156 C 10.265625 7.910156 10.382812 7.957031 10.472656 8.046875 C 10.558594 8.140625 10.605469 8.257812 10.605469 8.398438 C 10.605469 8.539062 10.558594 8.65625 10.46875 8.75 C 10.378906 8.84375 10.265625 8.890625 10.128906 8.890625 C 10.046875 8.890625 9.964844 8.871094 9.886719 8.832031 C 9.8125 8.792969 9.753906 8.738281 9.714844 8.664062 C 9.671875 8.585938 9.652344 8.496094 9.652344 8.386719 M 9.902344 8.402344 C 9.902344 8.492188 9.925781 8.566406 9.96875 8.613281 C 10.011719 8.664062 10.066406 8.6875 10.128906 8.6875 C 10.191406 8.6875 10.246094 8.664062 10.289062 8.613281 C 10.332031 8.566406 10.355469 8.492188 10.355469 8.398438 C 10.355469 8.308594 10.332031 8.234375 10.289062 8.1875 C 10.246094 8.136719 10.191406 8.113281 10.128906 8.113281 C 10.066406 8.113281 10.011719 8.136719 9.96875 8.1875 C 9.925781 8.234375 9.902344 8.308594 9.902344 8.402344 "/>
<path style=" stroke:none;fill-rule:nonzero;fill:rgb(6.27451%,16.078431%,55.686275%);fill-opacity:1;" d="M 11.398438 8.871094 L 11.398438 7.574219 L 11.808594 7.574219 C 11.964844 7.574219 12.066406 7.582031 12.113281 7.59375 C 12.1875 7.613281 12.25 7.65625 12.296875 7.71875 C 12.347656 7.785156 12.371094 7.871094 12.371094 7.972656 C 12.371094 8.050781 12.359375 8.117188 12.328125 8.171875 C 12.300781 8.226562 12.265625 8.269531 12.222656 8.300781 C 12.179688 8.332031 12.132812 8.351562 12.089844 8.363281 C 12.027344 8.375 11.9375 8.382812 11.820312 8.382812 L 11.652344 8.382812 L 11.652344 8.871094 Z M 11.652344 7.792969 L 11.652344 8.160156 L 11.792969 8.160156 C 11.894531 8.160156 11.964844 8.152344 11.996094 8.140625 C 12.03125 8.128906 12.058594 8.105469 12.078125 8.078125 C 12.097656 8.046875 12.105469 8.015625 12.105469 7.976562 C 12.105469 7.929688 12.09375 7.890625 12.066406 7.859375 C 12.039062 7.828125 12.003906 7.808594 11.964844 7.800781 C 11.933594 7.796875 11.871094 7.792969 11.777344 7.792969 Z M 11.652344 7.792969 "/>
<path style=" stroke:none;fill-rule:nonzero;fill:rgb(6.27451%,16.078431%,55.686275%);fill-opacity:1;" d="M 12.816406 8.21875 L 12.59375 8.175781 C 12.621094 8.085938 12.664062 8.019531 12.722656 7.976562 C 12.785156 7.929688 12.875 7.910156 12.996094 7.910156 C 13.101562 7.910156 13.183594 7.921875 13.238281 7.949219 C 13.289062 7.976562 13.328125 8.007812 13.351562 8.050781 C 13.371094 8.089844 13.382812 8.164062 13.382812 8.273438 L 13.378906 8.5625 C 13.378906 8.644531 13.382812 8.707031 13.390625 8.746094 C 13.398438 8.785156 13.414062 8.824219 13.4375 8.871094 L 13.195312 8.871094 C 13.1875 8.855469 13.179688 8.828125 13.171875 8.796875 C 13.167969 8.78125 13.164062 8.773438 13.164062 8.769531 C 13.121094 8.808594 13.074219 8.839844 13.027344 8.859375 C 12.980469 8.882812 12.929688 8.890625 12.875 8.890625 C 12.78125 8.890625 12.707031 8.867188 12.652344 8.8125 C 12.597656 8.761719 12.570312 8.695312 12.570312 8.613281 C 12.570312 8.5625 12.582031 8.511719 12.609375 8.472656 C 12.632812 8.429688 12.667969 8.398438 12.710938 8.375 C 12.757812 8.355469 12.820312 8.335938 12.90625 8.320312 C 13.019531 8.296875 13.097656 8.277344 13.144531 8.257812 L 13.144531 8.234375 C 13.144531 8.183594 13.132812 8.152344 13.109375 8.128906 C 13.085938 8.109375 13.042969 8.101562 12.976562 8.101562 C 12.933594 8.101562 12.898438 8.109375 12.875 8.125 C 12.851562 8.144531 12.832031 8.175781 12.816406 8.21875 M 13.144531 8.417969 C 13.113281 8.429688 13.0625 8.441406 12.996094 8.457031 C 12.925781 8.472656 12.882812 8.488281 12.863281 8.5 C 12.832031 8.523438 12.8125 8.554688 12.8125 8.589844 C 12.8125 8.625 12.828125 8.652344 12.851562 8.679688 C 12.878906 8.703125 12.910156 8.714844 12.949219 8.714844 C 12.992188 8.714844 13.035156 8.703125 13.074219 8.671875 C 13.105469 8.648438 13.125 8.621094 13.132812 8.589844 C 13.140625 8.570312 13.144531 8.527344 13.144531 8.46875 Z M 13.144531 8.417969 "/>
<path style=" stroke:none;fill-rule:nonzero;fill:rgb(6.27451%,16.078431%,55.686275%);fill-opacity:1;" d="M 13.5625 7.929688 L 13.820312 7.929688 L 14.039062 8.597656 L 14.257812 7.929688 L 14.507812 7.929688 L 14.183594 8.835938 L 14.125 9 C 14.105469 9.054688 14.082031 9.09375 14.0625 9.125 C 14.042969 9.152344 14.023438 9.175781 13.996094 9.195312 C 13.972656 9.210938 13.941406 9.226562 13.902344 9.238281 C 13.867188 9.246094 13.824219 9.25 13.78125 9.25 C 13.734375 9.25 13.6875 9.246094 13.640625 9.238281 L 13.621094 9.042969 C 13.65625 9.050781 13.691406 9.054688 13.722656 9.054688 C 13.78125 9.054688 13.820312 9.035156 13.847656 9.003906 C 13.875 8.96875 13.898438 8.925781 13.910156 8.875 Z M 13.5625 7.929688 "/>
<path style=" stroke:none;fill-rule:nonzero;fill:rgb(6.27451%,16.078431%,55.686275%);fill-opacity:1;" d="M 14.699219 7.929688 L 14.925781 7.929688 L 14.925781 8.058594 C 15.003906 7.960938 15.101562 7.910156 15.210938 7.910156 C 15.269531 7.910156 15.320312 7.921875 15.367188 7.945312 C 15.410156 7.972656 15.445312 8.007812 15.472656 8.058594 C 15.511719 8.007812 15.554688 7.972656 15.601562 7.945312 C 15.648438 7.921875 15.699219 7.910156 15.753906 7.910156 C 15.820312 7.910156 15.878906 7.921875 15.925781 7.953125 C 15.972656 7.980469 16.007812 8.019531 16.03125 8.074219 C 16.046875 8.117188 16.054688 8.179688 16.054688 8.269531 L 16.054688 8.871094 L 15.8125 8.871094 L 15.8125 8.332031 C 15.8125 8.242188 15.804688 8.179688 15.785156 8.152344 C 15.765625 8.117188 15.730469 8.101562 15.683594 8.101562 C 15.648438 8.101562 15.617188 8.109375 15.585938 8.132812 C 15.554688 8.152344 15.535156 8.183594 15.519531 8.226562 C 15.507812 8.265625 15.5 8.332031 15.5 8.417969 L 15.5 8.871094 L 15.257812 8.871094 L 15.257812 8.355469 C 15.257812 8.265625 15.253906 8.207031 15.242188 8.179688 C 15.234375 8.152344 15.222656 8.132812 15.203125 8.121094 C 15.1875 8.105469 15.160156 8.101562 15.128906 8.101562 C 15.09375 8.101562 15.058594 8.109375 15.027344 8.132812 C 14.996094 8.152344 14.976562 8.179688 14.964844 8.21875 C 14.949219 8.257812 14.945312 8.324219 14.945312 8.414062 L 14.945312 8.871094 L 14.699219 8.871094 Z M 14.699219 7.929688 "/>
<path style=" stroke:none;fill-rule:nonzero;fill:rgb(6.27451%,16.078431%,55.686275%);fill-opacity:1;" d="M 16.886719 8.570312 L 17.128906 8.613281 C 17.097656 8.703125 17.046875 8.773438 16.980469 8.820312 C 16.914062 8.867188 16.828125 8.890625 16.726562 8.890625 C 16.566406 8.890625 16.449219 8.839844 16.371094 8.730469 C 16.3125 8.644531 16.28125 8.539062 16.28125 8.40625 C 16.28125 8.253906 16.320312 8.128906 16.402344 8.042969 C 16.480469 7.953125 16.582031 7.910156 16.703125 7.910156 C 16.839844 7.910156 16.949219 7.957031 17.027344 8.046875 C 17.105469 8.140625 17.144531 8.28125 17.140625 8.472656 L 16.53125 8.472656 C 16.53125 8.546875 16.550781 8.605469 16.589844 8.644531 C 16.628906 8.683594 16.675781 8.707031 16.730469 8.707031 C 16.769531 8.707031 16.800781 8.695312 16.828125 8.675781 C 16.851562 8.652344 16.871094 8.617188 16.886719 8.570312 M 16.898438 8.320312 C 16.898438 8.25 16.878906 8.195312 16.84375 8.15625 C 16.808594 8.117188 16.769531 8.101562 16.71875 8.101562 C 16.664062 8.101562 16.621094 8.121094 16.585938 8.160156 C 16.550781 8.199219 16.535156 8.253906 16.535156 8.320312 Z M 16.898438 8.320312 "/>
<path style=" stroke:none;fill-rule:nonzero;fill:rgb(6.27451%,16.078431%,55.686275%);fill-opacity:1;" d="M 18.230469 8.871094 L 17.988281 8.871094 L 17.988281 8.390625 C 17.988281 8.289062 17.984375 8.222656 17.972656 8.195312 C 17.960938 8.164062 17.945312 8.140625 17.921875 8.125 C 17.898438 8.109375 17.871094 8.101562 17.835938 8.101562 C 17.796875 8.101562 17.757812 8.113281 17.722656 8.136719 C 17.691406 8.160156 17.667969 8.191406 17.65625 8.230469 C 17.640625 8.269531 17.636719 8.339844 17.636719 8.445312 L 17.636719 8.871094 L 17.390625 8.871094 L 17.390625 7.929688 L 17.617188 7.929688 L 17.617188 8.070312 C 17.699219 7.960938 17.800781 7.910156 17.921875 7.910156 C 17.976562 7.910156 18.023438 7.917969 18.070312 7.9375 C 18.113281 7.960938 18.148438 7.984375 18.171875 8.015625 C 18.195312 8.046875 18.210938 8.082031 18.21875 8.121094 C 18.226562 8.160156 18.230469 8.214844 18.230469 8.285156 Z M 18.230469 8.871094 "/>
<path style=" stroke:none;fill-rule:nonzero;fill:rgb(6.27451%,16.078431%,55.686275%);fill-opacity:1;" d="M 18.957031 7.929688 L 18.957031 8.128906 L 18.789062 8.128906 L 18.789062 8.507812 C 18.789062 8.585938 18.789062 8.628906 18.792969 8.640625 L 18.816406 8.671875 C 18.828125 8.679688 18.839844 8.6875 18.855469 8.6875 C 18.878906 8.6875 18.910156 8.675781 18.953125 8.660156 L 18.976562 8.855469 C 18.917969 8.878906 18.855469 8.890625 18.78125 8.890625 C 18.738281 8.890625 18.699219 8.882812 18.664062 8.871094 C 18.628906 8.855469 18.601562 8.835938 18.585938 8.8125 C 18.570312 8.785156 18.558594 8.753906 18.550781 8.714844 C 18.546875 8.683594 18.542969 8.625 18.542969 8.539062 L 18.542969 8.128906 L 18.433594 8.128906 L 18.433594 7.929688 L 18.542969 7.929688 L 18.542969 7.746094 L 18.789062 7.597656 L 18.789062 7.929688 Z M 18.957031 7.929688 "/>
<path style=" stroke:none;fill-rule:nonzero;fill:rgb(6.27451%,16.078431%,55.686275%);fill-opacity:1;" d="M 19.09375 8.601562 L 19.335938 8.566406 C 19.347656 8.613281 19.367188 8.648438 19.398438 8.675781 C 19.433594 8.699219 19.476562 8.710938 19.535156 8.710938 C 19.597656 8.710938 19.644531 8.699219 19.675781 8.675781 C 19.699219 8.660156 19.707031 8.636719 19.707031 8.609375 C 19.707031 8.589844 19.703125 8.574219 19.691406 8.5625 C 19.679688 8.550781 19.652344 8.539062 19.609375 8.53125 C 19.414062 8.488281 19.289062 8.445312 19.234375 8.410156 C 19.164062 8.359375 19.125 8.289062 19.125 8.199219 C 19.125 8.117188 19.15625 8.046875 19.21875 7.992188 C 19.285156 7.9375 19.382812 7.910156 19.515625 7.910156 C 19.640625 7.910156 19.734375 7.929688 19.796875 7.972656 C 19.855469 8.015625 19.898438 8.078125 19.921875 8.160156 L 19.691406 8.203125 C 19.683594 8.164062 19.664062 8.136719 19.636719 8.117188 C 19.609375 8.097656 19.570312 8.089844 19.519531 8.089844 C 19.453125 8.089844 19.40625 8.097656 19.378906 8.117188 C 19.363281 8.128906 19.351562 8.144531 19.351562 8.167969 C 19.351562 8.183594 19.359375 8.199219 19.375 8.210938 C 19.398438 8.226562 19.476562 8.25 19.605469 8.28125 C 19.734375 8.3125 19.824219 8.347656 19.875 8.390625 C 19.925781 8.4375 19.953125 8.496094 19.953125 8.578125 C 19.953125 8.664062 19.917969 8.738281 19.847656 8.800781 C 19.777344 8.859375 19.671875 8.890625 19.535156 8.890625 C 19.40625 8.890625 19.308594 8.867188 19.234375 8.8125 C 19.164062 8.761719 19.113281 8.691406 19.09375 8.601562 "/>
<path style=" stroke:none;fill-rule:nonzero;fill:rgb(6.27451%,16.078431%,55.686275%);fill-opacity:1;" d="M 21.851562 8.871094 L 21.570312 8.871094 L 21.460938 8.574219 L 20.949219 8.574219 L 20.847656 8.871094 L 20.574219 8.871094 L 21.070312 7.574219 L 21.339844 7.574219 Z M 21.378906 8.359375 L 21.203125 7.875 L 21.03125 8.359375 Z M 21.378906 8.359375 "/>
<path style=" stroke:none;fill-rule:nonzero;fill:rgb(6.27451%,16.078431%,55.686275%);fill-opacity:1;" d="M 22.269531 8.871094 L 22.027344 8.871094 L 22.027344 7.929688 L 22.253906 7.929688 L 22.253906 8.066406 C 22.292969 8 22.328125 7.960938 22.359375 7.941406 C 22.390625 7.917969 22.425781 7.910156 22.464844 7.910156 C 22.519531 7.910156 22.574219 7.925781 22.625 7.957031 L 22.550781 8.171875 C 22.507812 8.144531 22.46875 8.132812 22.433594 8.132812 C 22.398438 8.132812 22.371094 8.140625 22.347656 8.160156 C 22.324219 8.179688 22.304688 8.214844 22.292969 8.265625 C 22.277344 8.316406 22.269531 8.421875 22.269531 8.582031 Z M 22.269531 8.871094 "/>
<path style=" stroke:none;fill-rule:nonzero;fill:rgb(6.27451%,16.078431%,55.686275%);fill-opacity:1;" d="M 23.316406 8.570312 L 23.558594 8.613281 C 23.527344 8.703125 23.480469 8.773438 23.410156 8.820312 C 23.34375 8.867188 23.261719 8.890625 23.160156 8.890625 C 23 8.890625 22.878906 8.839844 22.804688 8.730469 C 22.742188 8.644531 22.710938 8.539062 22.710938 8.40625 C 22.710938 8.253906 22.75 8.128906 22.832031 8.042969 C 22.910156 7.953125 23.011719 7.910156 23.132812 7.910156 C 23.269531 7.910156 23.378906 7.957031 23.457031 8.046875 C 23.539062 8.140625 23.574219 8.28125 23.574219 8.472656 L 22.960938 8.472656 C 22.964844 8.546875 22.984375 8.605469 23.019531 8.644531 C 23.058594 8.683594 23.105469 8.707031 23.160156 8.707031 C 23.199219 8.707031 23.230469 8.695312 23.257812 8.675781 C 23.285156 8.652344 23.304688 8.617188 23.316406 8.570312 M 23.332031 8.320312 C 23.328125 8.25 23.3125 8.195312 23.277344 8.15625 C 23.242188 8.117188 23.199219 8.101562 23.148438 8.101562 C 23.097656 8.101562 23.050781 8.121094 23.015625 8.160156 C 22.980469 8.199219 22.964844 8.253906 22.964844 8.320312 Z M 23.332031 8.320312 "/>
<path style=" stroke:none;fill-rule:nonzero;fill:rgb(6.27451%,16.078431%,55.686275%);fill-opacity:1;" d="M 24.007812 8.21875 L 23.785156 8.175781 C 23.808594 8.085938 23.851562 8.019531 23.914062 7.976562 C 23.976562 7.929688 24.066406 7.910156 24.183594 7.910156 C 24.292969 7.910156 24.375 7.921875 24.429688 7.949219 C 24.480469 7.976562 24.519531 8.007812 24.539062 8.050781 C 24.5625 8.089844 24.574219 8.164062 24.574219 8.273438 L 24.570312 8.5625 C 24.570312 8.644531 24.574219 8.707031 24.582031 8.746094 C 24.589844 8.785156 24.605469 8.824219 24.625 8.871094 L 24.382812 8.871094 C 24.378906 8.855469 24.371094 8.828125 24.359375 8.796875 C 24.355469 8.78125 24.355469 8.773438 24.351562 8.769531 C 24.3125 8.808594 24.265625 8.839844 24.21875 8.859375 C 24.171875 8.882812 24.121094 8.890625 24.066406 8.890625 C 23.972656 8.890625 23.898438 8.867188 23.84375 8.8125 C 23.789062 8.761719 23.761719 8.695312 23.761719 8.613281 C 23.761719 8.5625 23.773438 8.511719 23.796875 8.472656 C 23.824219 8.429688 23.855469 8.398438 23.902344 8.375 C 23.945312 8.355469 24.011719 8.335938 24.097656 8.320312 C 24.210938 8.296875 24.289062 8.277344 24.332031 8.257812 L 24.332031 8.234375 C 24.332031 8.183594 24.320312 8.152344 24.296875 8.128906 C 24.273438 8.109375 24.230469 8.101562 24.167969 8.101562 C 24.125 8.101562 24.089844 8.109375 24.066406 8.125 C 24.042969 8.144531 24.023438 8.175781 24.007812 8.21875 M 24.332031 8.417969 C 24.300781 8.429688 24.253906 8.441406 24.183594 8.457031 C 24.117188 8.472656 24.074219 8.488281 24.050781 8.5 C 24.019531 8.523438 24.003906 8.554688 24.003906 8.589844 C 24.003906 8.625 24.015625 8.652344 24.042969 8.679688 C 24.066406 8.703125 24.101562 8.714844 24.140625 8.714844 C 24.183594 8.714844 24.226562 8.703125 24.265625 8.671875 C 24.296875 8.648438 24.3125 8.621094 24.324219 8.589844 C 24.328125 8.570312 24.332031 8.527344 24.332031 8.46875 Z M 24.332031 8.417969 "/>
<path style=" stroke:none;fill-rule:nonzero;fill:rgb(6.27451%,16.078431%,55.686275%);fill-opacity:1;" d="M 5.730469 2.476562 L 4.0625 2.476562 C 4.0625 2.199219 4.03125 2.011719 3.964844 1.914062 C 3.867188 1.773438 3.59375 1.703125 3.144531 1.703125 C 2.710938 1.703125 2.421875 1.746094 2.28125 1.824219 C 2.140625 1.90625 2.070312 2.085938 2.070312 2.355469 C 2.070312 2.605469 2.132812 2.765625 2.257812 2.84375 C 2.347656 2.902344 2.464844 2.933594 2.613281 2.941406 L 2.949219 2.96875 C 3.667969 3.015625 4.117188 3.050781 4.296875 3.070312 C 4.867188 3.128906 5.28125 3.28125 5.539062 3.53125 C 5.738281 3.726562 5.859375 3.984375 5.898438 4.300781 C 5.921875 4.488281 5.933594 4.699219 5.933594 4.9375 C 5.933594 5.484375 5.878906 5.886719 5.777344 6.136719 C 5.59375 6.605469 5.175781 6.898438 4.527344 7.019531 C 4.253906 7.074219 3.839844 7.097656 3.28125 7.097656 C 2.347656 7.097656 1.695312 7.042969 1.328125 6.929688 C 0.875 6.789062 0.578125 6.507812 0.433594 6.082031 C 0.355469 5.84375 0.316406 5.449219 0.316406 4.898438 L 1.984375 4.898438 C 1.984375 4.960938 1.984375 5.007812 1.984375 5.039062 C 1.984375 5.332031 2.066406 5.523438 2.230469 5.605469 C 2.347656 5.664062 2.484375 5.695312 2.648438 5.699219 L 3.261719 5.699219 C 3.574219 5.699219 3.773438 5.683594 3.859375 5.652344 C 4.015625 5.589844 4.113281 5.492188 4.164062 5.351562 C 4.1875 5.269531 4.199219 5.160156 4.199219 5.027344 C 4.199219 4.726562 4.09375 4.546875 3.878906 4.480469 C 3.800781 4.457031 3.429688 4.417969 2.765625 4.375 C 2.230469 4.335938 1.863281 4.296875 1.65625 4.261719 C 1.109375 4.15625 0.746094 3.941406 0.5625 3.617188 C 0.402344 3.34375 0.324219 2.925781 0.324219 2.367188 C 0.324219 1.941406 0.367188 1.597656 0.453125 1.34375 C 0.539062 1.085938 0.679688 0.890625 0.871094 0.757812 C 1.152344 0.550781 1.511719 0.433594 1.949219 0.394531 C 2.3125 0.363281 2.71875 0.347656 3.160156 0.347656 C 3.863281 0.347656 4.359375 0.386719 4.65625 0.46875 C 5.382812 0.667969 5.746094 1.226562 5.746094 2.140625 C 5.746094 2.214844 5.742188 2.328125 5.730469 2.476562 "/>
<path style=" stroke:none;fill-rule:nonzero;fill:rgb(6.27451%,16.078431%,55.686275%);fill-opacity:1;" d="M 13.0625 7.097656 L 13.0625 0.3125 L 16.402344 0.3125 C 16.859375 0.3125 17.207031 0.347656 17.449219 0.425781 C 17.996094 0.601562 18.367188 0.960938 18.554688 1.503906 C 18.652344 1.789062 18.703125 2.214844 18.703125 2.789062 C 18.703125 3.476562 18.648438 3.972656 18.539062 4.273438 C 18.324219 4.871094 17.886719 5.214844 17.21875 5.300781 C 17.140625 5.316406 16.808594 5.328125 16.21875 5.335938 L 15.921875 5.347656 L 14.855469 5.347656 L 14.855469 7.097656 Z M 14.855469 3.773438 L 15.972656 3.773438 C 16.324219 3.757812 16.542969 3.730469 16.617188 3.6875 C 16.726562 3.628906 16.796875 3.507812 16.832031 3.332031 C 16.855469 3.210938 16.863281 3.035156 16.863281 2.800781 C 16.863281 2.515625 16.84375 2.300781 16.796875 2.164062 C 16.734375 1.96875 16.578125 1.851562 16.335938 1.808594 C 16.285156 1.800781 16.171875 1.796875 15.988281 1.796875 L 14.855469 1.796875 Z M 14.855469 3.773438 "/>
<path style=" stroke:none;fill-rule:nonzero;fill:rgb(6.27451%,16.078431%,55.686275%);fill-opacity:1;" d="M 22.527344 5.925781 L 20.128906 5.925781 L 19.808594 7.097656 L 17.953125 7.097656 L 19.957031 0.3125 L 22.660156 0.3125 L 24.683594 7.097656 L 22.867188 7.097656 Z M 22.171875 4.605469 L 21.332031 1.660156 L 20.515625 4.605469 Z M 22.171875 4.605469 "/>
<path style=" stroke:none;fill-rule:nonzero;fill:rgb(100%,74.509804%,0%);fill-opacity:1;" d="M 10.589844 1.265625 C 11.328125 1.265625 11.988281 1.613281 12.421875 2.15625 L 12.808594 1.3125 C 12.203125 0.730469 11.378906 0.371094 10.472656 0.371094 C 9.0625 0.371094 7.851562 1.242188 7.359375 2.472656 L 6.605469 2.472656 L 6.160156 3.445312 L 7.128906 3.445312 C 7.121094 3.535156 7.117188 3.625 7.117188 3.714844 C 7.117188 3.828125 7.121094 3.9375 7.132812 4.046875 L 6.644531 4.046875 L 6.199219 5.019531 L 7.378906 5.019531 C 7.890625 6.21875 9.082031 7.0625 10.472656 7.0625 C 11.175781 7.0625 11.824219 6.847656 12.363281 6.480469 L 12.363281 5.289062 C 11.929688 5.792969 11.296875 6.109375 10.589844 6.109375 C 9.761719 6.109375 9.035156 5.675781 8.613281 5.019531 L 11.082031 5.019531 L 11.527344 4.046875 L 8.25 4.046875 C 8.230469 3.929688 8.222656 3.808594 8.222656 3.6875 C 8.222656 3.605469 8.226562 3.523438 8.234375 3.445312 L 11.800781 3.445312 L 12.246094 2.472656 L 8.542969 2.472656 C 8.953125 1.75 9.714844 1.265625 10.589844 1.265625 "/>
<path style=" stroke:none;fill-rule:nonzero;fill:rgb(6.27451%,16.078431%,55.686275%);fill-opacity:1;" d="M 10.589844 1.296875 C 11.292969 1.296875 11.953125 1.617188 12.398438 2.175781 L 12.425781 2.210938 L 12.445312 2.167969 L 12.832031 1.324219 L 12.839844 1.304688 L 12.828125 1.292969 C 12.191406 0.679688 11.355469 0.34375 10.472656 0.34375 C 9.785156 0.34375 9.121094 0.546875 8.554688 0.9375 C 8.003906 1.316406 7.582031 1.84375 7.332031 2.460938 L 7.359375 2.441406 L 6.585938 2.441406 L 6.578125 2.460938 L 6.132812 3.433594 L 6.113281 3.472656 L 7.128906 3.472656 L 7.101562 3.441406 C 7.09375 3.542969 7.085938 3.632812 7.085938 3.714844 C 7.085938 3.824219 7.09375 3.9375 7.105469 4.050781 L 7.132812 4.019531 L 6.628906 4.019531 L 6.621094 4.035156 L 6.175781 5.007812 L 6.15625 5.046875 L 7.378906 5.046875 L 7.355469 5.03125 C 7.886719 6.28125 9.109375 7.089844 10.472656 7.089844 C 11.15625 7.089844 11.816406 6.886719 12.378906 6.507812 L 12.390625 6.496094 L 12.390625 5.210938 L 12.339844 5.269531 C 11.898438 5.785156 11.257812 6.082031 10.589844 6.082031 C 9.800781 6.082031 9.070312 5.679688 8.636719 5.003906 L 8.613281 5.046875 L 11.101562 5.046875 L 11.109375 5.03125 L 11.554688 4.058594 L 11.570312 4.019531 L 8.25 4.019531 L 8.277344 4.042969 C 8.261719 3.925781 8.25 3.804688 8.25 3.6875 C 8.25 3.609375 8.253906 3.527344 8.261719 3.445312 L 8.234375 3.472656 L 11.820312 3.472656 L 11.828125 3.457031 L 12.273438 2.484375 L 12.292969 2.441406 L 8.542969 2.441406 L 8.566406 2.488281 C 8.984375 1.75 9.761719 1.296875 10.589844 1.296875 M 8.542969 2.5 L 12.246094 2.5 L 12.222656 2.460938 L 11.777344 3.433594 L 11.800781 3.414062 L 8.210938 3.414062 L 8.207031 3.441406 C 8.199219 3.523438 8.195312 3.605469 8.195312 3.6875 C 8.195312 3.808594 8.203125 3.929688 8.21875 4.050781 L 8.222656 4.074219 L 11.527344 4.074219 L 11.5 4.035156 L 11.054688 5.007812 L 11.082031 4.988281 L 8.558594 4.988281 L 8.589844 5.035156 C 9.035156 5.726562 9.78125 6.140625 10.589844 6.140625 C 11.273438 6.140625 11.929688 5.835938 12.382812 5.308594 L 12.332031 5.289062 L 12.332031 6.480469 L 12.347656 6.457031 C 11.792969 6.832031 11.144531 7.03125 10.472656 7.03125 C 9.132812 7.03125 7.929688 6.238281 7.40625 5.007812 L 7.398438 4.988281 L 6.199219 4.988281 L 6.226562 5.03125 L 6.671875 4.058594 L 6.644531 4.074219 L 7.164062 4.074219 L 7.160156 4.042969 C 7.152344 3.933594 7.144531 3.824219 7.144531 3.714844 C 7.144531 3.632812 7.148438 3.546875 7.15625 3.445312 L 7.160156 3.414062 L 6.160156 3.414062 L 6.183594 3.457031 L 6.628906 2.484375 L 6.605469 2.5 L 7.375 2.5 L 7.382812 2.484375 C 7.628906 1.875 8.046875 1.355469 8.589844 0.984375 C 9.144531 0.601562 9.796875 0.402344 10.472656 0.402344 C 11.339844 0.402344 12.164062 0.730469 12.789062 1.332031 L 12.78125 1.300781 L 12.394531 2.144531 L 12.441406 2.140625 C 11.984375 1.566406 11.308594 1.238281 10.589844 1.238281 C 9.738281 1.238281 8.945312 1.703125 8.519531 2.457031 L 8.492188 2.5 Z M 8.542969 2.5 "/>
</g>
</svg>
