<?xml version="1.0" encoding="UTF-8"?>
<svg width="25px" height="17px" viewBox="0 0 25 17" version="1.1" xmlns="http://www.w3.org/2000/svg" xmlns:xlink="http://www.w3.org/1999/xlink">
    <title>84E604BE-E8F7-47F3-81E0-83ABEA995E68</title>
    <g id="Page-1" stroke="none" stroke-width="1" fill="none" fill-rule="evenodd">
        <g id="DT-Footer-v1" transform="translate(-1128.000000, -845.000000)" fill-rule="nonzero">
            <g id="Visa" transform="translate(1128.000000, 845.500000)">
                <rect id="Rectangle-1" fill="#0E4595" x="0" y="0" width="25" height="16" rx="1"></rect>
                <polygon id="Shape" fill="#FFFFFF" points="8.89458824 11.3244141 10.0249374 4.69153694 11.8328659 4.69153694 10.7017374 11.3244141"></polygon>
                <path d="M17.2333741,4.83458824 C16.8751699,4.70021082 16.3139426,4.55600753 15.6130184,4.55600753 C13.8266052,4.55600753 12.5682146,5.45561788 12.5575078,6.74494306 C12.5474447,7.69801976 13.4558645,8.22970165 14.1416433,8.546976 C14.8453459,8.87207718 15.0819464,9.07943718 15.078592,9.36974118 C15.0741195,9.81434541 14.5166193,10.0174701 13.9969656,10.0174701 C13.2733402,10.0174701 12.8889111,9.91694118 12.2951906,9.66929506 L12.0622155,9.56385318 L11.8084706,11.0487134 C12.2307464,11.2338466 13.0115991,11.3942795 13.8223699,11.4025807 C15.7227972,11.4025807 16.9565214,10.5132706 16.9705487,9.13646118 C16.9773591,8.38193506 16.4956875,7.80769694 15.4526532,7.33432659 C14.8207134,7.027488 14.4337092,6.82273694 14.4378089,6.51203576 C14.4378089,6.23633506 14.7653835,5.94152471 15.473152,5.94152471 C16.0643652,5.93234259 16.4926042,6.06126494 16.8262776,6.19564235 L16.9883031,6.27218259 L17.2333741,4.83458824" id="path13" fill="#FFFFFF"></path>
                <path d="M21.8856584,4.69153694 L20.4886551,4.69153694 C20.0558758,4.69153694 19.7320282,4.80965082 19.5419482,5.24158306 L16.8569412,11.3201788 L18.7554033,11.3201788 C18.7554033,11.3201788 19.0658334,10.5028687 19.1360376,10.3234278 C19.3434993,10.3234278 21.1877496,10.3262739 21.4514221,10.3262739 C21.5054984,10.5584696 21.6713864,11.3201788 21.6713864,11.3201788 L23.3489694,11.3201788 L21.8856584,4.69153694 L21.8856584,4.69153694 Z M19.6691765,8.97450353 C19.8186993,8.59234447 20.3894814,7.12035953 20.3894814,7.12035953 C20.3788085,7.13801224 20.5378861,6.73633694 20.6291991,6.48730165 L20.7514127,7.059168 C20.7514127,7.059168 21.0975887,8.64245647 21.1699275,8.97446965 L19.6691765,8.97446965 L19.6691765,8.97450353 L19.6691765,8.97450353 Z" id="Path" fill="#FFFFFF"></path>
                <path d="M7.35988706,4.69153694 L5.58987294,9.21466165 L5.40128376,8.29546729 C5.07177788,7.23583059 4.04514259,6.08782871 2.89741176,5.51308235 L4.51587012,11.3138428 L6.42869835,11.3116405 L9.27495153,4.69153694 L7.35988706,4.69153694" id="path16" fill="#FFFFFF"></path>
                <path d="M3.93834541,4.69153694 L1.02307388,4.69153694 L1,4.82953976 C3.26805082,5.37856941 4.76880188,6.70536847 5.39176282,8.29956706 L4.75785788,5.25151059 C4.64841788,4.83150494 4.331008,4.70617412 3.93834541,4.69153694" id="path18" fill="#F2AE14"></path>
            </g>
        </g>
    </g>
</svg>